<?xml version="1.0" encoding="UTF-8"?>
<svg version="1.1" xmlns="http://www.w3.org/2000/svg" width="612" height="406">
<path d="M0 0 C201.96 0 403.92 0 612 0 C612 133.98 612 267.96 612 406 C410.04 406 208.08 406 0 406 C0 272.02 0 138.04 0 0 Z " fill="#FCFCFC" transform="translate(0,0)"/>
<path d="M0 0 C201.96 0 403.92 0 612 0 C612 44.55 612 89.1 612 135 C410.04 135 208.08 135 0 135 C0 90.45 0 45.9 0 0 Z " fill="#264698" transform="translate(0,271)"/>
<path d="M0 0 C201.96 0 403.92 0 612 0 C612 44.55 612 89.1 612 135 C410.04 135 208.08 135 0 135 C0 90.45 0 45.9 0 0 Z " fill="#B82029" transform="translate(0,0)"/>
<path d="M0 0 C201.96 0 403.92 0 612 0 C612 1.32 612 2.64 612 4 C410.04 4 208.08 4 0 4 C0 2.68 0 1.36 0 0 Z " fill="#B3151E" transform="translate(0,131)"/>
</svg>
