<?xml version="1.0" encoding="UTF-8"?>
<svg version="1.1" xmlns="http://www.w3.org/2000/svg" width="800" height="480">
<path d="M0 0 C264 0 528 0 800 0 C800 158.4 800 316.8 800 480 C536 480 272 480 0 480 C0 321.6 0 163.2 0 0 Z " fill="#C8102E" transform="translate(0,0)"/>
<path d="M0 0 C116.16 0 232.32 0 352 0 C352 63.36 352 126.72 352 192 C235.84 192 119.68 192 0 192 C0 128.64 0 65.28 0 0 Z " fill="#FFFFFF" transform="translate(448,288)"/>
<path d="M0 0 C116.16 0 232.32 0 352 0 C352 63.36 352 126.72 352 192 C235.84 192 119.68 192 0 192 C0 128.64 0 65.28 0 0 Z " fill="#FFFFFF" transform="translate(0,288)"/>
<path d="M0 0 C116.16 0 232.32 0 352 0 C352 63.36 352 126.72 352 192 C235.84 192 119.68 192 0 192 C0 128.64 0 65.28 0 0 Z " fill="#FFFFFF" transform="translate(448,0)"/>
<path d="M0 0 C116.16 0 232.32 0 352 0 C352 63.36 352 126.72 352 192 C235.84 192 119.68 192 0 192 C0 128.64 0 65.28 0 0 Z " fill="#FFFFFF" transform="translate(0,0)"/>
</svg>
