<?xml version="1.0" encoding="UTF-8"?>
<svg version="1.1" xmlns="http://www.w3.org/2000/svg" width="600" height="400">
<path d="M0 0 C198 0 396 0 600 0 C600 132 600 264 600 400 C402 400 204 400 0 400 C0 268 0 136 0 0 Z " fill="#FEC300" transform="translate(0,0)"/>
<path d="M0 0 C198 0 396 0 600 0 C600 33 600 66 600 100 C402 100 204 100 0 100 C0 67 0 34 0 0 Z " fill="#C60B1D" transform="translate(0,300)"/>
<path d="M0 0 C198 0 396 0 600 0 C600 33 600 66 600 100 C402 100 204 100 0 100 C0 67 0 34 0 0 Z " fill="#C60B1D" transform="translate(0,0)"/>
<path d="M0 0 C0.309375 0.78375 0.61875 1.5675 0.9375 2.375 C1.92875038 4.92330128 1.92875038 4.92330128 3 7 C2.67 7.99 2.34 8.98 2 10 C3.32 10 4.64 10 6 10 C6.66 6.7 7.32 3.4 8 0 C13.65863105 -0.29268781 17.02222358 -0.03522952 22 3 C23 4 23 4 24 6 C24.60908203 5.25363281 24.60908203 5.25363281 25.23046875 4.4921875 C27 3 27 3 29.05078125 2.8203125 C33.91290049 3.47531302 37.70078186 4.46456366 42 7 C42 8.98 42 10.96 42 13 C41.01 13 40.02 13 39 13 C39 13.99 39 14.98 39 16 C39.66 16 40.32 16 41 16 C39.76210371 19.71368887 38.14775123 20.77354181 35 23 C34.34 23 33.68 23 33 23 C33 23.66 33 24.32 33 25 C32.34 25 31.68 25 31 25 C30.814375 26.4540625 30.814375 26.4540625 30.625 27.9375 C30.41875 28.948125 30.2125 29.95875 30 31 C29.34 31.33 28.68 31.66 28 32 C33.61 32.33 39.22 32.66 45 33 C45 41.58 45 50.16 45 59 C45.99 58.67 46.98 58.34 48 58 C55.39005127 57.68073476 62.69395786 57.83103326 70 59 C70 53.72 70 48.44 70 43 C66.97265625 43.13020833 63.9453125 43.26041667 60.91796875 43.390625 C58 43 58 43 56.125 41.15625 C54.7875667 38.59283618 54.76228455 36.85258538 55 34 C55.99 34 56.98 34 58 34 C57.2575 33.1028125 57.2575 33.1028125 56.5 32.1875 C55 30 55 30 55 27 C57.64 26.34 60.28 25.68 63 25 C63 24.01 63 23.02 63 22 C63.66 22 64.32 22 65 22 C65 23.32 65 24.64 65 26 C67.31 26.33 69.62 26.66 72 27 C71.42415568 29.38564077 70.77772405 31.66682784 70 34 C70.99 34 71.98 34 73 34 C73.06704584 36.41365011 73.11213078 38.56863472 72.50219727 40.91503906 C71.98431182 43.06513227 71.88562299 44.9022342 71.90234375 47.109375 C71.90556641 47.86347656 71.90878906 48.61757812 71.91210938 49.39453125 C71.92048828 50.17183594 71.92886719 50.94914062 71.9375 51.75 C71.94426758 52.93916016 71.94426758 52.93916016 71.95117188 54.15234375 C71.96291435 56.10159508 71.98084854 58.05080738 72 60 C72.94875 60.4125 73.8975 60.825 74.875 61.25 C78 63 78 63 79.47265625 64.92578125 C80.33976697 68.33641676 78.90750119 70.32289031 77.29296875 73.29296875 C76 75 76 75 73.25 76 C72.5075 76 71.765 76 71 76 C71.02126462 79.40614946 71.02126462 79.40614946 72 83 C74.93449408 85.01041003 74.93449408 85.01041003 78 86 C78 88.97 78 91.94 78 95 C77.01 95.33 76.02 95.66 75 96 C75 96.99 75 97.98 75 99 C74.34 99 73.68 99 73 99 C72.875 93.25 72.875 93.25 74 91 C72.39125 90.690625 72.39125 90.690625 70.75 90.375 C64.26629135 88.77150216 56.75954266 85.75954266 52 81 C51.8046875 78.8359375 51.8046875 78.8359375 51.875 76.375 C51.89304687 75.55773437 51.91109375 74.74046875 51.9296875 73.8984375 C51.95289063 73.27195312 51.97609375 72.64546875 52 72 C53.65 71.67 55.3 71.34 57 71 C57 71.9075 57 72.815 57 73.75 C57.64706965 77.00189705 57.64706965 77.00189705 59.70703125 78.25390625 C63.13065393 79.9752453 66.26132512 81.06533128 70 82 C70 77.38 70 72.76 70 68 C66.37062331 67.27412466 63.72378217 66.87920141 60.13671875 66.90234375 C59.25048828 66.90556641 58.36425781 66.90878906 57.45117188 66.91210938 C56.0831543 66.92467773 56.0831543 66.92467773 54.6875 66.9375 C53.75615234 66.94201172 52.82480469 66.94652344 51.86523438 66.95117188 C49.57675627 66.96290766 47.28841192 66.97932637 45 67 C45.01571045 68.16982422 45.0314209 69.33964844 45.04760742 70.54492188 C45.10218711 74.91334055 45.13645153 79.28172947 45.16479492 83.65039062 C45.17981793 85.53585897 45.20024231 87.42129275 45.22631836 89.30664062 C45.26298863 92.0274309 45.27979146 94.74775641 45.29296875 97.46875 C45.30845261 98.30241089 45.32393646 99.13607178 45.33988953 99.99499512 C45.341803 106.75252617 43.89107899 111.91824165 40.3125 117.75 C36.47021339 121.48844103 31.3496113 124.20005812 26 125 C20.30496032 124.01546259 14.72210376 122.41945445 10 119 C9.34 119.99 8.68 120.98 8 122 C7.34 120.35 6.68 118.7 6 117 C4.68 117.33 3.36 117.66 2 118 C1.505 119.98 1.505 119.98 1 122 C1.66 122 2.32 122 3 122 C3.33 120.35 3.66 118.7 4 117 C4.66 117.33 5.32 117.66 6 118 C6 119.98 6 121.96 6 124 C6.66 123.67 7.32 123.34 8 123 C9.99960012 122.960008 12.00047242 122.95653201 14 123 C12.10283965 125.56674636 10.90835687 126.02291078 7.75 126.8125 C3.64065146 127.01796743 0.82141618 126.49859458 -3 125 C-3.66 124.01 -4.32 123.02 -5 122 C-3.35 122 -1.7 122 0 122 C0 120.68 0 119.36 0 118 C-1.65 118.99 -3.3 119.98 -5 121 C-5.029729 119.53191895 -5.029729 119.53191895 -5.06005859 118.03417969 C-5.13624624 114.39606403 -5.22494295 110.75834147 -5.31738281 107.12060547 C-5.35561829 105.54744235 -5.39048066 103.97419342 -5.421875 102.40087891 C-5.46764422 100.13673277 -5.52561761 97.87317453 -5.5859375 95.609375 C-5.59748871 94.90818542 -5.60903992 94.20699585 -5.62094116 93.48455811 C-5.73920651 89.55392856 -6.18579396 87.62841207 -8 84 C-8.33 96.87 -8.66 109.74 -9 123 C-13.95 123.99 -13.95 123.99 -19 125 C-23 122 -23 122 -23.4430542 119.96882629 C-23.41640686 119.19383286 -23.38975952 118.41883942 -23.36230469 117.62036133 C-23.34198181 116.73967484 -23.32165894 115.85898834 -23.30072021 114.95161438 C-23.25820129 114.00465195 -23.21568237 113.05768951 -23.171875 112.08203125 C-23.13009125 110.62345955 -23.13009125 110.62345955 -23.08746338 109.13542175 C-22.9940236 106.02683264 -22.87235482 102.92007239 -22.75 99.8125 C-22.68173382 97.70643967 -22.61530456 95.60031894 -22.55078125 93.49414062 C-22.38850199 88.32848452 -22.20089853 83.16429253 -22 78 C-23.65 78 -25.3 78 -27 78 C-27 91.86 -27 105.72 -27 120 C-31.01679467 117.99160266 -32.57952851 116.67553078 -35 113 C-34.505 111.515 -34.505 111.515 -34 110 C-33.67 110.66 -33.34 111.32 -33 112 C-32.67 100.78 -32.34 89.56 -32 78 C-33.32 78 -34.64 78 -36 78 C-36.33 74.7 -36.66 71.4 -37 68 C-41.02463026 66.99384244 -44.30232336 66.86680342 -48.4375 66.875 C-50.38462891 66.87113281 -50.38462891 66.87113281 -52.37109375 66.8671875 C-55.40111541 66.97808173 -58.06498638 67.28745334 -61 68 C-61.33 70.64 -61.66 73.28 -62 76 C-64.25 75.875 -64.25 75.875 -67 75 C-69.51605133 72.00793896 -70.90851969 70.05202351 -71.25 66.125 C-71.1675 65.42375 -71.085 64.7225 -71 64 C-63.54663026 59.4367124 -57.03291715 57.66703211 -48.3125 57.8125 C-47.56677734 57.81314453 -46.82105469 57.81378906 -46.05273438 57.81445312 C-42.47592777 57.84316968 -39.49188146 58.12702963 -36 59 C-36 50.42 -36 41.84 -36 33 C-28.08 32.505 -28.08 32.505 -20 32 C-20.66 31.67 -21.32 31.34 -22 31 C-22.11214844 30.23042969 -22.22429687 29.46085937 -22.33984375 28.66796875 C-23.20782937 25.1600742 -24.63895288 24.34846005 -27.5625 22.3125 C-29.07212029 21.25034906 -30.56006275 20.15485877 -32 19 C-32 18.34 -32 17.68 -32 17 C-30.5459375 17.0309375 -30.5459375 17.0309375 -29.0625 17.0625 C-26.12534105 17.35618499 -26.12534105 17.35618499 -25 16 C-25.928125 15.731875 -26.85625 15.46375 -27.8125 15.1875 C-30.76240366 14.08851629 -32.05615186 13.37581439 -34 11 C-33.4375 8.6875 -33.4375 8.6875 -32 6 C-27.59889043 3.54553505 -24.02617134 2.44153652 -19 3 C-16.625 4 -16.625 4 -15 5 C-15.66 6.65 -16.32 8.3 -17 10 C-15.68 10.33 -14.36 10.66 -13 11 C-13.495 7.535 -13.495 7.535 -14 4 C-8.89306527 0.08468337 -6.36484364 -0.10265877 0 0 Z " fill="#7E4435" transform="translate(196,147)"/>
<path d="M0 0 C12.87 0 25.74 0 39 0 C39.37280705 14.6659632 39.71234967 29.3321109 40 44 C40.02477417 45.23040009 40.02477417 45.23040009 40.05004883 46.48565674 C40.14379207 51.24036897 40.20702954 55.99449719 40.25 60.75 C40.2819043 62.46546021 40.2819043 62.46546021 40.31445312 64.21557617 C40.34671013 71.78041877 39.32578942 77.20982464 35.3125 83.75 C31.47021339 87.48844103 26.3496113 90.20005812 21 91 C13.97008432 89.78469416 7.60497116 87.8944124 2.75 82.5 C0.4255579 79.17936842 -0.12570288 76.72410602 -0.09765625 72.76953125 C-0.09443359 71.96708984 -0.09121094 71.16464844 -0.08789062 70.33789062 C-0.07951172 69.50451172 -0.07113281 68.67113281 -0.0625 67.8125 C-0.05798828 66.96751953 -0.05347656 66.12253906 -0.04882812 65.25195312 C-0.03705403 63.16793845 -0.0191189 61.08396023 0 59 C2.97 58.505 2.97 58.505 6 58 C6 57.34 6 56.68 6 56 C6.66 56 7.32 56 8 56 C8 58.31 8 60.62 8 63 C9.98 62.34 11.96 61.68 14 61 C13.35546875 60.77570313 12.7109375 60.55140625 12.046875 60.3203125 C10 59 10 59 9.390625 56.6171875 C9.34421875 55.71226562 9.2978125 54.80734375 9.25 53.875 C9.19328125 52.96492188 9.1365625 52.05484375 9.078125 51.1171875 C9.05234375 50.41851562 9.0265625 49.71984375 9 49 C8.67 49.66 8.34 50.32 8 51 C7.34 50.67 6.68 50.34 6 50 C6.33 49.34 6.66 48.68 7 48 C7.65753556 43.21877711 7.71680862 40.01196511 4.875 36 C1.78007546 33.84700902 -0.27209179 33.26008662 -4 33 C-3.67 32.01 -3.34 31.02 -3 30 C-2.01 29.67 -1.02 29.34 0 29 C0 19.43 0 9.86 0 0 Z " fill="#C09007" transform="translate(201,181)"/>
<path d="M0 0 C19.305 0.495 19.305 0.495 39 1 C39 10.57 39 20.14 39 30 C32 33 32 33 29 32 C28.81548975 20.47835991 28.81548975 20.47835991 30 15 C29.01 15 28.02 15 27 15 C27 14.34 27 13.68 27 13 C27.66 13 28.32 13 29 13 C29 12.01 29 11.02 29 10 C27.02 10 25.04 10 23 10 C23.495 12.475 23.495 12.475 24 15 C23.34 15 22.68 15 22 15 C22.33 11.7 22.66 8.4 23 5 C21.02 5 19.04 5 17 5 C17 6.32 17 7.64 17 9 C17.66 9 18.32 9 19 9 C19 10.98 19 12.96 19 15 C18.01 15 17.02 15 16 15 C16.33 13.35 16.66 11.7 17 10 C15.68 10.33 14.36 10.66 13 11 C13 12.32 13 13.64 13 15 C12.01 15 11.02 15 10 15 C10 16.98 10 18.96 10 21 C10.66 21 11.32 21 12 21 C12 24.96 12 28.92 12 33 C11.01 33 10.02 33 9 33 C9 34.98 9 36.96 9 39 C9.85549438 38.99214478 9.85549438 38.99214478 10.72827148 38.98413086 C13.29800323 38.96341779 15.86771747 38.9503581 18.4375 38.9375 C19.33533203 38.92912109 20.23316406 38.92074219 21.15820312 38.91210938 C22.01220703 38.90888672 22.86621094 38.90566406 23.74609375 38.90234375 C24.53685303 38.89710693 25.3276123 38.89187012 26.14233398 38.88647461 C28 39 28 39 29 40 C29.66 39.67 30.32 39.34 31 39 C31.05607422 39.88751953 31.05607422 39.88751953 31.11328125 40.79296875 C31.61202785 47.43296848 31.61202785 47.43296848 35 53 C38.57996259 54.36900354 38.57996259 54.36900354 42 55 C41.34 55.99 40.68 56.98 40 58 C37.375 58.1875 37.375 58.1875 35 58 C35.0314209 59.20329956 35.0314209 59.20329956 35.06347656 60.4309082 C35.14651316 64.05797848 35.19862204 67.68484906 35.25 71.3125 C35.28351563 72.57513672 35.31703125 73.83777344 35.3515625 75.13867188 C35.37089844 76.95141602 35.37089844 76.95141602 35.390625 78.80078125 C35.4220459 80.47394409 35.4220459 80.47394409 35.45410156 82.1809082 C35 85 35 85 32.97558594 86.88745117 C32.32364258 87.25459229 31.67169922 87.6217334 31 88 C30.970271 86.53191895 30.970271 86.53191895 30.93994141 85.03417969 C30.86375376 81.39606403 30.77505705 77.75834147 30.68261719 74.12060547 C30.64438171 72.54744235 30.60951934 70.97419342 30.578125 69.40087891 C30.53235578 67.13673277 30.47438239 64.87317453 30.4140625 62.609375 C30.40251129 61.90818542 30.39096008 61.20699585 30.37905884 60.48455811 C30.26079349 56.55392856 29.81420604 54.62841207 28 51 C27.67 63.87 27.34 76.74 27 90 C22.05 90.99 22.05 90.99 17 92 C13 89 13 89 12.5569458 86.96882629 C12.58359314 86.19383286 12.61024048 85.41883942 12.63769531 84.62036133 C12.65801819 83.73967484 12.67834106 82.85898834 12.69927979 81.95161438 C12.74179871 81.00465195 12.78431763 80.05768951 12.828125 79.08203125 C12.86990875 77.62345955 12.86990875 77.62345955 12.91253662 76.13542175 C13.0059764 73.02683264 13.12764518 69.92007239 13.25 66.8125 C13.31826618 64.70643967 13.38469544 62.60031894 13.44921875 60.49414062 C13.61149801 55.32848452 13.79910147 50.16429253 14 45 C12.35 45 10.7 45 9 45 C9 58.86 9 72.72 9 87 C4.98320533 84.99160266 3.42047149 83.67553078 1 80 C1.495 78.515 1.495 78.515 2 77 C2.33 77.66 2.66 78.32 3 79 C3.33 67.78 3.66 56.56 4 45 C2.68 45 1.36 45 0 45 C-0.33 41.7 -0.66 38.4 -1 35 C-5.02463026 33.99384244 -8.30232336 33.86680342 -12.4375 33.875 C-14.38462891 33.87113281 -14.38462891 33.87113281 -16.37109375 33.8671875 C-19.40111541 33.97808173 -22.06498638 34.28745334 -25 35 C-25.33 37.64 -25.66 40.28 -26 43 C-28.25 42.875 -28.25 42.875 -31 42 C-33.51605133 39.00793896 -34.90851969 37.05202351 -35.25 33.125 C-35.1675 32.42375 -35.085 31.7225 -35 31 C-27.54663026 26.4367124 -21.03291715 24.66703211 -12.3125 24.8125 C-11.56677734 24.81314453 -10.82105469 24.81378906 -10.05273438 24.81445312 C-6.47592777 24.84316968 -3.49188146 25.12702963 0 26 C0 17.42 0 8.84 0 0 Z " fill="#7F200E" transform="translate(160,180)"/>
<path d="M0 0 C0.309375 0.78375 0.61875 1.5675 0.9375 2.375 C1.92875038 4.92330128 1.92875038 4.92330128 3 7 C2.67 7.99 2.34 8.98 2 10 C3.32 10 4.64 10 6 10 C6.66 6.7 7.32 3.4 8 0 C13.65863105 -0.29268781 17.02222358 -0.03522952 22 3 C23 4 23 4 24 6 C24.40605469 5.50242188 24.81210938 5.00484375 25.23046875 4.4921875 C27 3 27 3 29.05078125 2.8203125 C33.91290049 3.47531302 37.70078186 4.46456366 42 7 C42 8.98 42 10.96 42 13 C41.01 13 40.02 13 39 13 C39 13.99 39 14.98 39 16 C39.66 16 40.32 16 41 16 C39.76210371 19.71368887 38.14775123 20.77354181 35 23 C34.34 23 33.68 23 33 23 C33 23.66 33 24.32 33 25 C32.34 25 31.68 25 31 25 C30.67 26.98 30.34 28.96 30 31 C25.29538677 32.86132673 21.1242304 33.2509496 16.125 33.125 C15.43664062 33.11597656 14.74828125 33.10695312 14.0390625 33.09765625 C12.35922162 33.07432513 10.67956254 33.03846326 9 33 C9 32.67 9 32.34 9 32 C13.95 31.67 18.9 31.34 24 31 C24 30.34 24 29.68 24 29 C10.8 29 -2.4 29 -16 29 C-16 29.66 -16 30.32 -16 31 C-11.05 31.33 -6.1 31.66 -1 32 C-1 32.33 -1 32.66 -1 33 C-3.37531394 33.0543965 -5.74935883 33.09385864 -8.125 33.125 C-8.79015625 33.14175781 -9.4553125 33.15851563 -10.140625 33.17578125 C-14.49516056 33.21847278 -17.95600114 32.59996217 -22 31 C-22.07089844 30.25105469 -22.14179688 29.50210938 -22.21484375 28.73046875 C-23.22079781 25.23215091 -24.61185999 24.36732755 -27.5625 22.3125 C-29.07212029 21.25034906 -30.56006275 20.15485877 -32 19 C-32 18.34 -32 17.68 -32 17 C-30.5459375 17.0309375 -30.5459375 17.0309375 -29.0625 17.0625 C-26.12534105 17.35618499 -26.12534105 17.35618499 -25 16 C-25.928125 15.731875 -26.85625 15.46375 -27.8125 15.1875 C-30.76240366 14.08851629 -32.05615186 13.37581439 -34 11 C-33.4375 8.6875 -33.4375 8.6875 -32 6 C-27.59889043 3.54553505 -24.02617134 2.44153652 -19 3 C-16.625 4 -16.625 4 -15 5 C-15.66 6.65 -16.32 8.3 -17 10 C-15.68 10.33 -14.36 10.66 -13 11 C-13.33 8.69 -13.66 6.38 -14 4 C-8.89306527 0.08468337 -6.36484364 -0.10265877 0 0 Z " fill="#937003" transform="translate(196,147)"/>
<path d="M0 0 C12.87 0 25.74 0 39 0 C39 14.52 39 29.04 39 44 C30.09 44 21.18 44 12 44 C11.34 41.36 10.68 38.72 10 36 C6.77850179 31.99489412 4.90109746 30.96043898 0 29 C0 19.43 0 9.86 0 0 Z " fill="#C9C9C9" transform="translate(201,181)"/>
<path d="M0 0 C0.495 1.485 0.495 1.485 1 3 C1.66 3 2.32 3 3 3 C3 2.01 3 1.02 3 0 C3.99 0.33 4.98 0.66 6 1 C6 2.32 6 3.64 6 5 C7.6396875 4.62875 7.6396875 4.62875 9.3125 4.25 C14.26160278 3.59187463 17.86355217 5.24949633 22.3984375 7.0859375 C25.67823237 8.23829786 28.54644967 8.06516133 32 8 C34.77288638 8.82104969 37.32770267 9.87482218 40 11 C40 11.66 40 12.32 40 13 C40.66 13 41.32 13 42 13 C42 13.66 42 14.32 42 15 C42.66 15 43.32 15 44 15 C46.61658883 20.07926068 45.85986112 24.02957069 44.3125 29.375 C43 31 43 31 39.875 31.75 C38.92625 31.8325 37.9775 31.915 37 32 C37 31.01 37 30.02 37 29 C37.99 29 38.98 29 40 29 C39.51973152 26.05181069 39.51973152 26.05181069 38 23 C33.58250086 20.4514428 30.06899764 19.62909773 25 20 C24.67 20.66 24.34 21.32 24 22 C22.35 21.67 20.7 21.34 19 21 C19 20.34 19 19.68 19 19 C14.66579301 16.96834048 10.71403788 16.47939368 6 16 C5.855625 17.27875 5.71125 18.5575 5.5625 19.875 C5.29357254 22.25692894 5.07773654 23.84452691 4 26 C2.68 26 1.36 26 0 26 C-1 21 -1 21 -2 16 C-3.6065676 16.25620684 -5.2102483 16.53055871 -6.8125 16.8125 C-7.70582031 16.96332031 -8.59914062 17.11414063 -9.51953125 17.26953125 C-12.22948743 18.06758134 -13.34360883 18.73335945 -15 21 C-15.25048636 24.12549017 -15.25048636 24.12549017 -15 27 C-15.99 27.33 -16.98 27.66 -18 28 C-18.66 27.01 -19.32 26.02 -20 25 C-19.34 25 -18.68 25 -18 25 C-18.495 22.525 -18.495 22.525 -19 20 C-24.88991826 19.6900043 -28.86429564 19.9605015 -34 23 C-35.05167527 25.57732914 -35.05167527 25.57732914 -35 28 C-31.81237635 30.12508244 -29.73487777 30.5020163 -26 31 C-26.99 32.485 -26.99 32.485 -28 34 C-36.41803279 33.02868852 -36.41803279 33.02868852 -39 31 C-41.87625768 25.94175374 -42.32788517 22.64351199 -41 17 C-40.67 16.34 -40.34 15.68 -40 15 C-39.34 15 -38.68 15 -38 15 C-38 14.34 -38 13.68 -38 13 C-37.34 13 -36.68 13 -36 13 C-36 12.34 -36 11.68 -36 11 C-30.68364723 9.26782768 -25.64059537 7.83900281 -20.0703125 7.3203125 C-17.56180513 6.93220381 -15.283344 6.17298861 -12.875 5.375 C-8.88829276 4.10146852 -6.11516945 3.80876674 -2 5 C-2 3.68 -2 2.36 -2 1 C-1.34 0.67 -0.68 0.34 0 0 Z " fill="#A08609" transform="translate(198,131)"/>
<path d="M0 0 C19.305 0.495 19.305 0.495 39 1 C39 10.57 39 20.14 39 30 C32 33 32 33 29 32 C28.81548975 20.47835991 28.81548975 20.47835991 30 15 C29.01 15 28.02 15 27 15 C27 14.34 27 13.68 27 13 C27.66 13 28.32 13 29 13 C29 12.01 29 11.02 29 10 C27.02 10 25.04 10 23 10 C23.33 11.65 23.66 13.3 24 15 C23.34 15 22.68 15 22 15 C22.33 11.7 22.66 8.4 23 5 C21.02 5 19.04 5 17 5 C17 6.32 17 7.64 17 9 C17.66 9 18.32 9 19 9 C19 10.98 19 12.96 19 15 C18.01 15 17.02 15 16 15 C16.33 13.35 16.66 11.7 17 10 C15.68 10.33 14.36 10.66 13 11 C13 12.32 13 13.64 13 15 C12.01 15 11.02 15 10 15 C10 16.98 10 18.96 10 21 C10.66 21 11.32 21 12 21 C12 24.96 12 28.92 12 33 C11.01 33 10.02 33 9 33 C9 34.98 9 36.96 9 39 C15.27 39 21.54 39 28 39 C27.67 40.65 27.34 42.3 27 44 C18.42 44 9.84 44 1 44 C0.37354129 37.7354129 -0.14439208 31.82498731 -0.09765625 25.5859375 C-0.09664917 24.92762939 -0.09564209 24.26932129 -0.09460449 23.59106445 C-0.08946302 21.18569132 -0.07550372 18.78034347 -0.0625 16.375 C-0.041875 10.97125 -0.02125 5.5675 0 0 Z " fill="#AA1218" transform="translate(160,180)"/>
<path d="M0 0 C0.66 0 1.32 0 2 0 C2 1.32 2 2.64 2 4 C4.31 4.33 6.62 4.66 9 5 C8.42415568 7.38564077 7.77772405 9.66682784 7 12 C7.99 12 8.98 12 10 12 C10.06704584 14.41365011 10.11213078 16.56863472 9.50219727 18.91503906 C8.98431182 21.06513227 8.88562299 22.9022342 8.90234375 25.109375 C8.90717773 26.24052734 8.90717773 26.24052734 8.91210938 27.39453125 C8.92048828 28.17183594 8.92886719 28.94914062 8.9375 29.75 C8.94201172 30.54277344 8.94652344 31.33554688 8.95117188 32.15234375 C8.96291435 34.10159508 8.98084854 36.05080738 9 38 C10.423125 38.61875 10.423125 38.61875 11.875 39.25 C15 41 15 41 16.47265625 42.92578125 C17.33976697 46.33641676 15.90750119 48.32289031 14.29296875 51.29296875 C13 53 13 53 10.25 54 C9.5075 54 8.765 54 8 54 C8.02126462 57.40614946 8.02126462 57.40614946 9 61 C11.93449408 63.01041003 11.93449408 63.01041003 15 64 C15 66.97 15 69.94 15 73 C13.515 73.495 13.515 73.495 12 74 C12 74.99 12 75.98 12 77 C11.34 77 10.68 77 10 77 C9.875 71.25 9.875 71.25 11 69 C9.9275 68.79375 8.855 68.5875 7.75 68.375 C1.26629135 66.77150216 -6.24045734 63.75954266 -11 59 C-11.1953125 56.8359375 -11.1953125 56.8359375 -11.125 54.375 C-11.10695312 53.55773437 -11.08890625 52.74046875 -11.0703125 51.8984375 C-11.03550781 50.95871094 -11.03550781 50.95871094 -11 50 C-8.525 49.505 -8.525 49.505 -6 49 C-6 49.9075 -6 50.815 -6 51.75 C-5.35293035 55.00189705 -5.35293035 55.00189705 -3.29296875 56.25390625 C0.13065393 57.9752453 3.26132512 59.06533128 7 60 C7 55.38 7 50.76 7 46 C3.37062331 45.27412466 0.72378217 44.87920141 -2.86328125 44.90234375 C-3.74951172 44.90556641 -4.63574219 44.90878906 -5.54882812 44.91210938 C-6.9168457 44.92467773 -6.9168457 44.92467773 -8.3125 44.9375 C-9.24384766 44.94201172 -10.17519531 44.94652344 -11.13476562 44.95117188 C-13.42324373 44.96290766 -15.71158808 44.97932637 -18 45 C-18 42.36 -18 39.72 -18 37 C-10.34431023 34.44810341 -0.89229429 35.73723291 7 37 C7 31.72 7 26.44 7 21 C3.97265625 21.13020833 0.9453125 21.26041667 -2.08203125 21.390625 C-5 21 -5 21 -6.875 19.15625 C-8.2124333 16.59283618 -8.23771545 14.85258538 -8 12 C-7.01 12 -6.02 12 -5 12 C-5.495 11.401875 -5.99 10.80375 -6.5 10.1875 C-8 8 -8 8 -8 5 C-5.36 4.34 -2.72 3.68 0 3 C0 2.01 0 1.02 0 0 Z " fill="#958401" transform="translate(259,169)"/>
<path d="M0 0 C7.19825708 -0.48801743 7.19825708 -0.48801743 10.875 1.75 C15.00652113 6.12455178 15 7.63696994 15 14 C24.24 14 33.48 14 43 14 C43.06930904 17.98398634 43.12890491 21.96641389 43.16479492 25.95068359 C43.18709408 27.96336248 43.22523653 29.97584584 43.26367188 31.98828125 C43.3276598 40.4773459 42.80324588 46.43174746 38.3125 53.75 C34.47021339 57.48844103 29.3496113 60.20005812 24 61 C16.97008432 59.78469416 10.60497116 57.8944124 5.75 52.5 C3.4255579 49.17936842 2.87429712 46.72410602 2.90234375 42.76953125 C2.90556641 41.96708984 2.90878906 41.16464844 2.91210938 40.33789062 C2.92048828 39.50451172 2.92886719 38.67113281 2.9375 37.8125 C2.94201172 36.96751953 2.94652344 36.12253906 2.95117188 35.25195312 C2.96294597 33.16793845 2.9808811 31.08396023 3 29 C4.32 28.67 5.64 28.34 7 28 C7.90293016 31.38598809 8.01611882 34.4625481 7.9375 37.9375 C7.89895667 43.12543262 8.55176874 46.91454699 11.5625 51.25 C16.31594282 54.66272818 21.17205349 55.29483008 26.875 54.375 C30.15241064 52.93293932 31.07110062 51.89334908 33 49 C33.99 49 34.98 49 36 49 C36 47.02 36 45.04 36 43 C36.66 43 37.32 43 38 43 C37.89171875 42.12601563 37.89171875 42.12601563 37.78125 41.234375 C35.87323944 24.38028169 35.87323944 24.38028169 38 18 C37.113125 18.165 36.22625 18.33 35.3125 18.5 C28.82324218 19.43274753 21.25319792 20.08439931 15 18 C14.67 19.32 14.34 20.64 14 22 C17.465 21.505 17.465 21.505 21 21 C21 24.3 21 27.6 21 31 C19 30 19 30 18.1875 28.125 C17.10645082 25.76142278 17.10645082 25.76142278 14.375 24.5 C13.59125 24.005 12.8075 23.51 12 23 C12 21.68 12 20.36 12 19 C11.67 19.66 11.34 20.32 11 21 C10.34 20.67 9.68 20.34 9 20 C9.33 19.34 9.66 18.68 10 18 C10.65753556 13.21877711 10.71680862 10.01196511 7.875 6 C4.78007546 3.84700902 2.72790821 3.26008662 -1 3 C-0.67 2.01 -0.34 1.02 0 0 Z " fill="#A71317" transform="translate(198,211)"/>
<path d="M0 0 C2.7194391 2.23133465 3.87157675 3.76208405 4.23828125 7.296875 C4.24902877 9.54668944 4.16683173 11.75704008 4 14 C4 14.33 4 14.66 4 15 C4.66 14.67 5.32 14.34 6 14 C5.979375 15.0725 5.95875 16.145 5.9375 17.25 C5.91009112 21.26330656 5.91009112 21.26330656 7 25 C8.9837767 26.28436734 8.9837767 26.28436734 11 27 C7.91190305 28.76462683 6.76687864 29 3 29 C3.33 26.69 3.66 24.38 4 22 C3.34 22 2.68 22 2 22 C2 22.66 2 23.32 2 24 C0.02 24.33 -1.96 24.66 -4 25 C-3.91275184 27.89724063 -3.80584073 30.79150135 -3.6875 33.6875 C-3.66494141 34.50412109 -3.64238281 35.32074219 -3.61914062 36.16210938 C-3.40660249 40.93455664 -2.93804157 44.04988241 0 48 C0.33 48.66 0.66 49.32 1 50 C0.0625 52.125 0.0625 52.125 -1 54 C-1.66 52.35 -2.32 50.7 -3 49 C-4.98 49.495 -4.98 49.495 -7 50 C-7.33 51.32 -7.66 52.64 -8 54 C-7.34 54 -6.68 54 -6 54 C-5.67 52.35 -5.34 50.7 -5 49 C-4.34 49.33 -3.68 49.66 -3 50 C-3 51.98 -3 53.96 -3 56 C-2.01 55.505 -2.01 55.505 -1 55 C0.99960012 54.960008 3.00047242 54.95653201 5 55 C3.10283965 57.56674636 1.90835687 58.02291078 -1.25 58.8125 C-5.35934854 59.01796743 -8.17858382 58.49859458 -12 57 C-12.66 56.01 -13.32 55.02 -14 54 C-12.35 54 -10.7 54 -9 54 C-9.16298584 53.46987305 -9.32597168 52.93974609 -9.49389648 52.39355469 C-10.11707603 49.44630323 -10.11186844 46.71610855 -10.09765625 43.703125 C-10.09282227 41.89521484 -10.09282227 41.89521484 -10.08789062 40.05078125 C-10.07951172 38.79652344 -10.07113281 37.54226562 -10.0625 36.25 C-10.05798828 34.98027344 -10.05347656 33.71054688 -10.04882812 32.40234375 C-10.03704556 29.26818164 -10.02059416 26.13411459 -10 23 C-8.68 22.34 -7.36 21.68 -6 21 C-6.94875 20.4225 -7.8975 19.845 -8.875 19.25 C-13.07913669 16.22302158 -13.07913669 16.22302158 -14 13 C-14.43002518 9.68266291 -14.71759662 7.19510514 -12.94921875 4.25 C-8.71893505 -0.9411446 -6.49061186 -1.56669941 0 0 Z " fill="#8D1112" transform="translate(205,215)"/>
<path d="M0 0 C1.65 0.66 3.3 1.32 5 2 C5 2.66 5 3.32 5 4 C8.27275026 4 10.846632 3.70074844 14 3 C12.125 9.875 12.125 9.875 11 11 C10.92755947 13.01964199 10.91622812 15.04167124 10.9375 17.0625 C10.94652344 18.16722656 10.95554688 19.27195313 10.96484375 20.41015625 C10.97644531 21.26480469 10.98804688 22.11945313 11 23 C9.35 23.66 7.7 24.32 6 25 C6.804375 26.2684375 6.804375 26.2684375 7.625 27.5625 C9.33807057 31.84517642 8.60455021 33.77749945 7 38 C5.125 37.875 5.125 37.875 3 37 C1.40155515 33.40349908 1 30.96602757 1 27 C0.34 27 -0.32 27 -1 27 C-0.67 28.65 -0.34 30.3 0 32 C-2.31 32.66 -4.62 33.32 -7 34 C-7 33.01 -7 32.02 -7 31 C-7.99 30.67 -8.98 30.34 -10 30 C-9.67 29.01 -9.34 28.02 -9 27 C-8.01 27 -7.02 27 -6 27 C-4.15574011 24.73183699 -4.15574011 24.73183699 -3 22 C-3.33 21.01 -3.66 20.02 -4 19 C-4.598125 19.33 -5.19625 19.66 -5.8125 20 C-8 21 -8 21 -11 21 C-11.33 21.99 -11.66 22.98 -12 24 C-12.33 23.01 -12.66 22.02 -13 21 C-13.66 20.67 -14.32 20.34 -15 20 C-15 19.01 -15 18.02 -15 17 C-13.35 17 -11.7 17 -10 17 C-9.67 16.34 -9.34 15.68 -9 15 C-9.99 15 -10.98 15 -12 15 C-12.33 13.68 -12.66 12.36 -13 11 C-14.32 10.67 -15.64 10.34 -17 10 C-16.67 8.68 -16.34 7.36 -16 6 C-14.35 5.67 -12.7 5.34 -11 5 C-10.67 6.32 -10.34 7.64 -10 9 C-7.03 9.495 -7.03 9.495 -4 10 C-4 9.34 -4 8.68 -4 8 C-4.99 7.67 -5.98 7.34 -7 7 C-4.87219421 4.65941363 -2.88437779 3.29299694 0 2 C0 1.34 0 0.68 0 0 Z " fill="#E16DA2" transform="translate(222,183)"/>
<path d="M0 0 C0 0.66 0 1.32 0 2 C-0.66 2.33 -1.32 2.66 -2 3 C-1.01 3.66 -0.02 4.32 1 5 C1.1875 7.625 1.1875 7.625 1 10 C0.31292969 10.18175781 -0.37414062 10.36351562 -1.08203125 10.55078125 C-2.43361328 10.92783203 -2.43361328 10.92783203 -3.8125 11.3125 C-4.70582031 11.55613281 -5.59914062 11.79976562 -6.51953125 12.05078125 C-9.0985936 13.03772952 -10.35906555 13.79769323 -12 16 C-12.25048636 19.12549017 -12.25048636 19.12549017 -12 22 C-12.99 22.33 -13.98 22.66 -15 23 C-15.66 22.01 -16.32 21.02 -17 20 C-16.34 20 -15.68 20 -15 20 C-15.495 17.525 -15.495 17.525 -16 15 C-21.88991826 14.6900043 -25.86429564 14.9605015 -31 18 C-32.05167527 20.57732914 -32.05167527 20.57732914 -32 23 C-28.81237635 25.12508244 -26.73487777 25.5020163 -23 26 C-23.66 26.99 -24.32 27.98 -25 29 C-33.41803279 28.02868852 -33.41803279 28.02868852 -36 26 C-38.87625768 20.94175374 -39.32788517 17.64351199 -38 12 C-37.67 11.34 -37.34 10.68 -37 10 C-36.34 10 -35.68 10 -35 10 C-35 9.34 -35 8.68 -35 8 C-34.34 8 -33.68 8 -33 8 C-33 7.34 -33 6.68 -33 6 C-23.62190148 2.94443102 -23.62190148 2.94443102 -18.875 2.5 C-15.68017612 2.08776466 -13.80181356 1.59549445 -10.9375 0.375 C-6.88867978 -1.28461542 -4.22591922 -0.96843982 0 0 Z " fill="#A28404" transform="translate(195,136)"/>
<path d="M0 0 C1.98 0 3.96 0 6 0 C5.67 3.3 5.34 6.6 5 10 C5.66 10 6.32 10 7 10 C6.67 8.35 6.34 6.7 6 5 C7.98 5 9.96 5 12 5 C12 5.99 12 6.98 12 8 C11.34 8 10.68 8 10 8 C10 8.66 10 9.32 10 10 C10.99 10 11.98 10 13 10 C12.67 13.3 12.34 16.6 12 20 C11.34 20 10.68 20 10 20 C10 19.34 10 18.68 10 18 C8.68 18 7.36 18 6 18 C6 19.98 6 21.96 6 24 C7.65 24 9.3 24 11 24 C10.67 24.66 10.34 25.32 10 26 C8.02 26 6.04 26 4 26 C4 26.66 4 27.32 4 28 C3.34 28.33 2.68 28.66 2 29 C1.34444881 31.52733235 1.34444881 31.52733235 1 34 C-1.97 34 -4.94 34 -8 34 C-8 32.02 -8 30.04 -8 28 C-7.01 28 -6.02 28 -5 28 C-5 24.04 -5 20.08 -5 16 C-5.66 16 -6.32 16 -7 16 C-7 14.02 -7 12.04 -7 10 C-6.01 10 -5.02 10 -4 10 C-4.33 8.35 -4.66 6.7 -5 5 C-3.35 5 -1.7 5 0 5 C-0.33 6.65 -0.66 8.3 -1 10 C-0.01 10 0.98 10 2 10 C2 8.02 2 6.04 2 4 C1.34 4 0.68 4 0 4 C0 2.68 0 1.36 0 0 Z " fill="#AA9700" transform="translate(177,185)"/>
<path d="M0 0 C5.65863105 -0.29268781 9.02222358 -0.03522952 14 3 C15 4 15 4 16 6 C16.40605469 5.50242188 16.81210938 5.00484375 17.23046875 4.4921875 C19 3 19 3 21.05078125 2.8203125 C25.91290049 3.47531302 29.70078186 4.46456366 34 7 C34 8.98 34 10.96 34 13 C33.01 13 32.02 13 31 13 C31 13.99 31 14.98 31 16 C31.66 16 32.32 16 33 16 C32.505 17.485 32.505 17.485 32 19 C31.34 19 30.68 19 30 19 C29.67 17.68 29.34 16.36 29 15 C27.68 15.33 26.36 15.66 25 16 C26.32 16.99 27.64 17.98 29 19 C28.34 19.66 27.68 20.32 27 21 C25.68 21 24.36 21 23 21 C22.67 19.68 22.34 18.36 22 17 C21.67 17.99 21.34 18.98 21 20 C19.35 20 17.7 20 16 20 C15.505 17.525 15.505 17.525 15 15 C14.34 15 13.68 15 13 15 C13 14.01 13 13.02 13 12 C13.99 12 14.98 12 16 12 C16.33 12.99 16.66 13.98 17 15 C18.32 15 19.64 15 21 15 C20.67 14.34 20.34 13.68 20 13 C19.01 12.67 18.02 12.34 17 12 C15.8125 9.9375 15.8125 9.9375 15 8 C14.01 9.485 14.01 9.485 13 11 C10.375 11.1875 10.375 11.1875 8 11 C7.67 11.66 7.34 12.32 7 13 C4.03 12.01 1.06 11.02 -2 10 C-1.34 6.7 -0.68 3.4 0 0 Z " fill="#A31815" transform="translate(204,147)"/>
<path d="M0 0 C4.15654359 0.46183818 6.21466571 0.88009102 9 4 C8.57576756 5.46224799 8.13509755 6.91973412 7.6875 8.375 C7.44386719 9.18710938 7.20023437 9.99921875 6.94921875 10.8359375 C6 13 6 13 3 15 C2.01 15 1.02 15 0 15 C0.02126462 18.40614946 0.02126462 18.40614946 1 22 C3.93449408 24.01041003 3.93449408 24.01041003 7 25 C7 27.97 7 30.94 7 34 C5.515 34.495 5.515 34.495 4 35 C4 35.99 4 36.98 4 38 C3.34 38 2.68 38 2 38 C1.875 32.25 1.875 32.25 3 30 C1.39125 29.690625 1.39125 29.690625 -0.25 29.375 C-6.73370865 27.77150216 -14.24045734 24.75954266 -19 20 C-19.1953125 17.8359375 -19.1953125 17.8359375 -19.125 15.375 C-19.10695312 14.55773437 -19.08890625 13.74046875 -19.0703125 12.8984375 C-19.04710937 12.27195313 -19.02390625 11.64546875 -19 11 C-17.35 10.67 -15.7 10.34 -14 10 C-14 10.9075 -14 11.815 -14 12.75 C-13.35293035 16.00189705 -13.35293035 16.00189705 -11.29296875 17.25390625 C-7.86934607 18.9752453 -4.73867488 20.06533128 -1 21 C-1 16.38 -1 11.76 -1 7 C-3.475 6.505 -3.475 6.505 -6 6 C-5.67 5.34 -5.34 4.68 -5 4 C-4.34 4 -3.68 4 -3 4 C-1.36323743 2.0399719 -1.36323743 2.0399719 0 0 Z " fill="#A41616" transform="translate(267,208)"/>
<path d="M0 0 C3.32513384 4.98770076 4.31195099 8.38554261 4.4140625 14.390625 C4.43342865 15.09523865 4.4527948 15.79985229 4.4727478 16.52581787 C4.53232735 18.76709039 4.57884123 21.00841489 4.625 23.25 C4.66319979 24.77345938 4.70225269 26.29689762 4.7421875 27.8203125 C4.83801018 31.54668106 4.92212107 35.27320835 5 39 C6.32 38.34 7.64 37.68 9 37 C9 38.32 9 39.64 9 41 C7.02 41.495 7.02 41.495 5 42 C8.72577091 44.48384727 11.67484225 45.41475787 16.16796875 44.61328125 C18.12496749 44.12489749 20.06441168 43.56732761 22 43 C19.36 43.33 16.72 43.66 14 44 C14 41.69 14 39.38 14 37 C13.34 38.32 12.68 39.64 12 41 C11.34 41 10.68 41 10 41 C10.33 39.35 10.66 37.7 11 36 C13.27161701 35.18870821 14.51944855 34.81772186 16.8125 35.6875 C18.61716175 36.77029705 20.40478697 37.88143496 22.1875 39 C26.23615976 41.35878438 30.41973828 42.21065784 35 43 C30.22513205 47.77486795 18.99408918 48.17928092 12.4375 48.375 C5.87261666 48.1769643 -0.72808045 46.92574431 -7 45 C-7.33 44.34 -7.66 43.68 -8 43 C-5.36 42.67 -2.72 42.34 0 42 C0 28.14 0 14.28 0 0 Z " fill="#BEBDBD" transform="translate(187,228)"/>
<path d="M0 0 C0.8353125 0.680625 0.8353125 0.680625 1.6875 1.375 C4.05313439 3.03733768 6.29015658 4.02144543 9 5 C8.125 9.75 8.125 9.75 7 12 C7.99 12.33 8.98 12.66 10 13 C10 14.65 10 16.3 10 18 C9.34 18 8.68 18 8 18 C7.67 19.65 7.34 21.3 7 23 C2.71 23 -1.58 23 -6 23 C-6.33 21.68 -6.66 20.36 -7 19 C-7.66 18.67 -8.32 18.34 -9 18 C-9 16.35 -9 14.7 -9 13 C-7.68 13 -6.36 13 -5 13 C-6.32 11.35 -7.64 9.7 -9 8 C-8.375 6.125 -8.375 6.125 -7 4 C-5.02111039 3.27306096 -3.02045442 2.60183749 -1 2 C-0.67 1.34 -0.34 0.68 0 0 Z " fill="#947E01" transform="translate(140,168)"/>
<path d="M0 0 C2.65358465 2.17730022 3.79918803 3.74036128 4.34375 7.15625 C4.53314858 11.89121458 4.08307106 15.205451 1 19 C-2.13871188 20.56935594 -4.53855822 20.35201103 -8 20 C-11.84554163 16.82324822 -13.80224739 14.71385593 -14.375 9.75 C-13.88072704 4.80727042 -12.46171699 3.46171699 -9 0 C-5.77839187 -1.61080407 -3.42436421 -0.82657067 0 0 Z " fill="#094FA6" transform="translate(205,215)"/>
<path d="M0 0 C5 1.66666667 10 3.33333333 15 5 C14.67 10.94 14.34 16.88 14 23 C9.38 23 4.76 23 0 23 C0 15.41 0 7.82 0 0 Z " fill="#CCCCCC" transform="translate(253,232)"/>
<path d="M0 0 C0.309375 0.78375 0.61875 1.5675 0.9375 2.375 C1.92875038 4.92330128 1.92875038 4.92330128 3 7 C2.67 7.99 2.34 8.98 2 10 C3.32 10 4.64 10 6 10 C6.33 10.99 6.66 11.98 7 13 C8.65 13 10.3 13 12 13 C11.67 14.65 11.34 16.3 11 18 C9.35 17.67 7.7 17.34 6 17 C5.67 16.01 5.34 15.02 5 14 C4.34 14 3.68 14 3 14 C2.67 15.32 2.34 16.64 2 18 C-0.66666667 18 -3.33333333 18 -6 18 C-7.33981486 18.3062434 -8.67511887 18.63451555 -10 19 C-10.33 18.01 -10.66 17.02 -11 16 C-10.34 16 -9.68 16 -9 16 C-9.34786708 14.02463255 -9.34786708 14.02463255 -10 12 C-10.66 11.67 -11.32 11.34 -12 11 C-12 10.01 -12 9.02 -12 8 C-12.66 8 -13.32 8 -14 8 C-14 6.35 -14 4.7 -14 3 C-8.99067246 -0.00559652 -5.67276511 -0.29341888 0 0 Z " fill="#A92514" transform="translate(196,147)"/>
<path d="M0 0 C0 7.59 0 15.18 0 23 C-4.29 23 -8.58 23 -13 23 C-13 17.06 -13 11.12 -13 5 C-10.339375 3.7625 -10.339375 3.7625 -7.625 2.5 C-6.62726563 2.0359375 -5.62953125 1.571875 -4.6015625 1.09375 C-2 0 -2 0 0 0 Z " fill="#CACACA" transform="translate(147,232)"/>
<path d="M0 0 C7.03128878 0.43384548 13.329015 1.74321997 20 4 C20 4.66 20 5.32 20 6 C20.66 6 21.32 6 22 6 C22 6.66 22 7.32 22 8 C22.66 8 23.32 8 24 8 C26.61658883 13.07926068 25.85986112 17.02957069 24.3125 22.375 C23 24 23 24 19.875 24.75 C18.451875 24.87375 18.451875 24.87375 17 25 C17 24.01 17 23.02 17 22 C17.99 22 18.98 22 20 22 C19.51973152 19.05181069 19.51973152 19.05181069 18 16 C13.78039304 13.64675766 9.77603724 12.58244357 5 12 C5.33 10.68 5.66 9.36 6 8 C5.34 7.67 4.68 7.34 4 7 C3.33333333 5.66666667 2.66666667 4.33333333 2 3 C1.34 2.67 0.68 2.34 0 2 C0 1.34 0 0.68 0 0 Z " fill="#B1972B" transform="translate(218,138)"/>
<path d="M0 0 C1.65 0.66 3.3 1.32 5 2 C5 2.66 5 3.32 5 4 C5.99 4.33 6.98 4.66 8 5 C8 5.66 8 6.32 8 7 C7.01 7 6.02 7 5 7 C5.33 9.31 5.66 11.62 6 14 C5.01 14.33 4.02 14.66 3 15 C2.26676204 17.01508358 2.26676204 17.01508358 2 19 C2 18.34 2 17.68 2 17 C0.02 17.99 0.02 17.99 -2 19 C-1.67 19.99 -1.34 20.98 -1 22 C-1.99 21.67 -2.98 21.34 -4 21 C-4 20.34 -4 19.68 -4 19 C-4.598125 19.33 -5.19625 19.66 -5.8125 20 C-8 21 -8 21 -11 21 C-11.33 21.99 -11.66 22.98 -12 24 C-12.33 23.01 -12.66 22.02 -13 21 C-13.66 20.67 -14.32 20.34 -15 20 C-15 19.01 -15 18.02 -15 17 C-13.35 17 -11.7 17 -10 17 C-9.67 16.34 -9.34 15.68 -9 15 C-9.99 15 -10.98 15 -12 15 C-12.33 13.68 -12.66 12.36 -13 11 C-14.32 10.67 -15.64 10.34 -17 10 C-16.67 8.68 -16.34 7.36 -16 6 C-14.35 5.67 -12.7 5.34 -11 5 C-10.67 6.32 -10.34 7.64 -10 9 C-7.03 9.495 -7.03 9.495 -4 10 C-4 9.34 -4 8.68 -4 8 C-4.99 7.67 -5.98 7.34 -7 7 C-4.87219421 4.65941363 -2.88437779 3.29299694 0 2 C0 1.34 0 0.68 0 0 Z " fill="#CD6B98" transform="translate(222,183)"/>
<path d="M0 0 C4.14581887 -0.02886751 8.29161216 -0.04675327 12.4375 -0.0625 C14.21350586 -0.07506836 14.21350586 -0.07506836 16.02539062 -0.08789062 C17.15009766 -0.09111328 18.27480469 -0.09433594 19.43359375 -0.09765625 C20.47572021 -0.10289307 21.51784668 -0.10812988 22.59155273 -0.11352539 C25 0 25 0 26 1 C26 3.97 26 6.94 26 10 C17.42 10 8.84 10 0 10 C0 6.7 0 3.4 0 0 Z " fill="#647C9F" transform="translate(247,264)"/>
<path d="M0 0 C2.475 0.495 2.475 0.495 5 1 C5.69175681 3.91526084 6.17581521 6.06058944 6 9 C1.40172758 14.68021887 -6.31834678 17.40405729 -13 20 C-13.99 20 -14.98 20 -16 20 C-15.67 22.31 -15.34 24.62 -15 27 C-15.66 27.33 -16.32 27.66 -17 28 C-20.53790403 24.30827405 -20.59115883 20.90609405 -21 16 C-17.51069535 13.02067065 -13.60283265 11.45260749 -9.375 9.8125 C-8.694375 9.53986328 -8.01375 9.26722656 -7.3125 8.98632812 C-2.27449483 7 -2.27449483 7 0 7 C0 4.69 0 2.38 0 0 Z " fill="#A31315" transform="translate(147,218)"/>
<path d="M0 0 C0.53625 0.33 1.0725 0.66 1.625 1 C1.0990625 2.175625 1.0990625 2.175625 0.5625 3.375 C0.253125 4.24125 -0.05625 5.1075 -0.375 6 C-0.045 6.66 0.285 7.32 0.625 8 C-1.355 8.99 -1.355 8.99 -3.375 10 C-0.9 10.99 -0.9 10.99 1.625 12 C1.295 13.32 0.965 14.64 0.625 16 C-1.025 15.67 -2.675 15.34 -4.375 15 C-4.375 14.34 -4.375 13.68 -4.375 13 C-5.035 13 -5.695 13 -6.375 13 C-6.045 13.99 -5.715 14.98 -5.375 16 C-9.18989674 17.46726798 -11.66511622 16.43336419 -15.375 15 C-15.375 14.34 -15.375 13.68 -15.375 13 C-13.9209375 13.0309375 -13.9209375 13.0309375 -12.4375 13.0625 C-9.50034105 13.35618499 -9.50034105 13.35618499 -8.375 12 C-9.303125 11.731875 -10.23125 11.46375 -11.1875 11.1875 C-14.13740366 10.08851629 -15.43115186 9.37581439 -17.375 7 C-16.8125 4.6875 -16.8125 4.6875 -15.375 2 C-10.25131502 -0.8574397 -5.57974589 -2.34936669 0 0 Z " fill="#A21716" transform="translate(179.375,151)"/>
<path d="M0 0 C1.65 0 3.3 0 5 0 C5 14.52 5 29.04 5 44 C4.01 44.495 4.01 44.495 3 45 C1.01074219 44.0925293 1.01074219 44.0925293 -1 42 C-1.53098294 38.83713333 -1.32222144 35.71328928 -1.171875 32.51953125 C-1.14401917 31.59154221 -1.11616333 30.66355316 -1.08746338 29.70744324 C-0.99404089 26.74146657 -0.87236822 23.7774099 -0.75 20.8125 C-0.68173189 18.80279676 -0.61530271 16.79303014 -0.55078125 14.78320312 C-0.38852259 9.85447961 -0.20092058 4.92729278 0 0 Z " fill="#B5A000" transform="translate(169,225)"/>
<path d="M0 0 C6.93 0.495 6.93 0.495 14 1 C14 6.28 14 11.56 14 17 C6 17 6 17 1 16 C0.67 10.72 0.34 5.44 0 0 Z " fill="#CACBCB" transform="translate(252,189)"/>
<path d="M0 0 C7.19825708 -0.48801743 7.19825708 -0.48801743 10.875 1.75 C15.00652113 6.12455178 15 7.63696994 15 14 C24.24 14 33.48 14 43 14 C43 23.57 43 33.14 43 43 C42.67 43 42.34 43 42 43 C42 33.76 42 24.52 42 15 C33.42 15 24.84 15 16 15 C15.34 17.31 14.68 19.62 14 22 C17.465 21.505 17.465 21.505 21 21 C21 24.3 21 27.6 21 31 C19 30 19 30 18.1875 28.125 C17.10645082 25.76142278 17.10645082 25.76142278 14.375 24.5 C13.59125 24.005 12.8075 23.51 12 23 C12 21.68 12 20.36 12 19 C11.67 19.66 11.34 20.32 11 21 C10.34 20.67 9.68 20.34 9 20 C9.33 19.34 9.66 18.68 10 18 C10.65753556 13.21877711 10.71680862 10.01196511 7.875 6 C4.78007546 3.84700902 2.72790821 3.26008662 -1 3 C-0.67 2.01 -0.34 1.02 0 0 Z " fill="#83110E" transform="translate(198,211)"/>
<path d="M0 0 C0.33 0 0.66 0 1 0 C1.03738281 0.59167969 1.07476562 1.18335938 1.11328125 1.79296875 C1.61202785 8.43296848 1.61202785 8.43296848 5 14 C8.57996259 15.36900354 8.57996259 15.36900354 12 16 C11.34 16.99 10.68 17.98 10 19 C7.375 19.1875 7.375 19.1875 5 19 C5.0314209 20.20329956 5.0314209 20.20329956 5.06347656 21.4309082 C5.14651316 25.05797848 5.19862204 28.68484906 5.25 32.3125 C5.28351563 33.57513672 5.31703125 34.83777344 5.3515625 36.13867188 C5.36445313 37.34716797 5.37734375 38.55566406 5.390625 39.80078125 C5.41157227 40.91622314 5.43251953 42.03166504 5.45410156 43.1809082 C5 46 5 46 2.97558594 47.88745117 C1.9976709 48.43816284 1.9976709 48.43816284 1 49 C0.98018066 48.0212793 0.96036133 47.04255859 0.93994141 46.03417969 C0.86375376 42.39606403 0.77505705 38.75834147 0.68261719 35.12060547 C0.64438171 33.54744235 0.60951934 31.97419342 0.578125 30.40087891 C0.53235578 28.13673277 0.47438239 25.87317453 0.4140625 23.609375 C0.40251129 22.90818542 0.39096008 22.20699585 0.37905884 21.48455811 C0.26810599 17.79696462 -0.12481016 15.1820003 -2 12 C-2.265625 9.4921875 -2.265625 9.4921875 -2.25 6.875 C-2.25773438 5.57175781 -2.25773438 5.57175781 -2.265625 4.2421875 C-2 2 -2 2 0 0 Z " fill="#8E2A11" transform="translate(190,219)"/>
<path d="M0 0 C4.29 0 8.58 0 13 0 C13 4.62 13 9.24 13 14 C8.71 14.66 4.42 15.32 0 16 C0 10.72 0 5.44 0 0 Z " fill="#CCCCCC" transform="translate(134,191)"/>
<path d="M0 0 C0.33 1.98 0.66 3.96 1 6 C0.15695313 6.14695313 -0.68609375 6.29390625 -1.5546875 6.4453125 C-4.82241416 7.11423537 -7.8804379 7.81387124 -11 9 C-12.92282004 11.99634696 -12.92282004 11.99634696 -13 15 C-9.81237635 17.12508244 -7.73487777 17.5020163 -4 18 C-4.66 18.99 -5.32 19.98 -6 21 C-14.41803279 20.02868852 -14.41803279 20.02868852 -17 18 C-19.06938056 14.00905178 -20 11.52370909 -20 7 C-19.01 7 -18.02 7 -17 7 C-16.67 5.68 -16.34 4.36 -16 3 C-15.01 3 -14.02 3 -13 3 C-12.278125 2.505 -11.55625 2.01 -10.8125 1.5 C-6.97247813 -0.54801167 -4.31434855 -0.21937366 0 0 Z " fill="#B49D00" transform="translate(176,144)"/>
<path d="M0 0 C0.66 0 1.32 0 2 0 C2.5625 1.9375 2.5625 1.9375 3 4 C2.67 4.33 2.34 4.66 2 5 C4.97 5.33 7.94 5.66 11 6 C11 6.66 11 7.32 11 8 C12.98 8 14.96 8 17 8 C17 7.34 17 6.68 17 6 C14.03 5.67 11.06 5.34 8 5 C8 4.67 8 4.34 8 4 C13.28 4.33 18.56 4.66 24 5 C23.34 6.32 22.68 7.64 22 9 C19.125 9.625 19.125 9.625 16 10 C15.319375 10.350625 14.63875 10.70125 13.9375 11.0625 C11.52047954 12.23202603 9.65088143 12.14727119 7 12 C7 12.66 7 13.32 7 14 C11.95 14.33 16.9 14.66 22 15 C22 15.33 22 15.66 22 16 C19.62468606 16.0543965 17.25064117 16.09385864 14.875 16.125 C14.20984375 16.14175781 13.5446875 16.15851563 12.859375 16.17578125 C8.50483944 16.21847278 5.04399886 15.59996217 1 14 C1 13.29875 1 12.5975 1 11.875 C-0.55233238 7.41204442 -4.16489997 5.54217337 -8 3 C-4.71023192 1.90341064 -3.28696233 2.20046862 0 3 C0 2.01 0 1.02 0 0 Z " fill="#B9A50A" transform="translate(173,164)"/>
<path d="M0 0 C1.32 0 2.64 0 4 0 C4 14.85 4 29.7 4 45 C2.68 45 1.36 45 0 45 C0 30.15 0 15.3 0 0 Z " fill="#C5B000" transform="translate(178,225)"/>
<path d="M0 0 C0 3.96 0 7.92 0 12 C-10.75 17 -10.75 17 -13 17 C-13 12.05 -13 7.1 -13 2 C-7.90207844 0.30069281 -5.15625988 -0.2062504 0 0 Z " fill="#C5C5C5" transform="translate(147,213)"/>
<path d="M0 0 C1.216875 -0.04125 2.43375 -0.0825 3.6875 -0.125 C4.71423828 -0.15980469 4.71423828 -0.15980469 5.76171875 -0.1953125 C8 0 8 0 13 2 C13 6.62 13 11.24 13 16 C7.06702777 15.0111713 4.85683221 14.01123597 0 11 C0 7.37 0 3.74 0 0 Z " fill="#C5C4C4" transform="translate(253,213)"/>
<path d="M0 0 C7.59 0 15.18 0 23 0 C23 3.63 23 7.26 23 11 C22.34 11 21.68 11 21 11 C20.67 12.32 20.34 13.64 20 15 C20 13.68 20 12.36 20 11 C19.34 11 18.68 11 18 11 C17.67 10.01 17.34 9.02 17 8 C16.690625 8.928125 16.690625 8.928125 16.375 9.875 C14.45224112 12.84653645 12.33405473 13.13024659 9 14 C11.33846154 7.47692308 11.33846154 7.47692308 14.6875 5.0625 C15.450625 4.711875 16.21375 4.36125 17 4 C14.36 4 11.72 4 9 4 C8.67 7.3 8.34 10.6 8 14 C7.67 14 7.34 14 7 14 C7 12.02 7 10.04 7 8 C6.01 8.495 6.01 8.495 5 9 C5.33 7.02 5.66 5.04 6 3 C3.69 3.33 1.38 3.66 -1 4 C-0.67 2.68 -0.34 1.36 0 0 Z " fill="#C29705" transform="translate(213,229)"/>
<path d="M0 0 C4.95 0 9.9 0 15 0 C15.33 0.99 15.66 1.98 16 3 C16.66 3.33 17.32 3.66 18 4 C18 5.65 18 7.3 18 9 C11.09811029 9.83854735 4.88577812 10.01593448 -2 9 C-2 7.35 -2 5.7 -2 4 C-1.34 4 -0.68 4 0 4 C0 2.68 0 1.36 0 0 Z " fill="#A68F01" transform="translate(252,255)"/>
<path d="M0 0 C3.41052052 5.11578077 4.286094 8.44278702 4.1953125 14.609375 C4.1924826 15.33618469 4.18965271 16.06299438 4.18673706 16.81182861 C4.17557523 19.12472251 4.15047851 21.43722388 4.125 23.75 C4.11496501 25.32160898 4.10584006 26.89322404 4.09765625 28.46484375 C4.07564904 32.31004622 4.04114715 36.15495664 4 40 C2.02 40.495 2.02 40.495 0 41 C0 27.47 0 13.94 0 0 Z " fill="#C7B100" transform="translate(187,228)"/>
<path d="M0 0 C1.27230469 0.00902344 2.54460937 0.01804688 3.85546875 0.02734375 C5.31919922 0.04474609 5.31919922 0.04474609 6.8125 0.0625 C5.8225 0.5575 5.8225 0.5575 4.8125 1.0625 C5.1425 3.0425 5.4725 5.0225 5.8125 7.0625 C6.4725 7.0625 7.1325 7.0625 7.8125 7.0625 C7.8125 5.7425 7.8125 4.4225 7.8125 3.0625 C8.4725 3.0625 9.1325 3.0625 9.8125 3.0625 C9.8125 4.7125 9.8125 6.3625 9.8125 8.0625 C3.2125 8.3925 -3.3875 8.7225 -10.1875 9.0625 C-10.1875 6.4225 -10.1875 3.7825 -10.1875 1.0625 C-6.62704823 -0.12431726 -3.74941663 -0.03439832 0 0 Z " fill="#A62113" transform="translate(251.1875,204.9375)"/>
<path d="M0 0 C1.31484375 -0.00128906 2.6296875 -0.00257813 3.984375 -0.00390625 C4.66435547 -0.00181152 5.34433594 0.0002832 6.04492188 0.00244141 C8.11856399 0.00779588 10.19198955 0.00248173 12.265625 -0.00390625 C13.58046875 -0.00261719 14.8953125 -0.00132812 16.25 0 C18.04824219 0.00169189 18.04824219 0.00169189 19.8828125 0.00341797 C22.75885167 0.11819965 25.33148457 0.46935259 28.125 1.1328125 C28.125 1.7928125 28.125 2.4528125 28.125 3.1328125 C23.90556916 3.93269331 19.91725267 4.26123748 15.625 4.265625 C14.408125 4.26691406 13.19125 4.26820313 11.9375 4.26953125 C10.0503125 4.26373047 10.0503125 4.26373047 8.125 4.2578125 C6.866875 4.26167969 5.60875 4.26554688 4.3125 4.26953125 C2.4871875 4.26759766 2.4871875 4.26759766 0.625 4.265625 C-1.03015625 4.26393311 -1.03015625 4.26393311 -2.71875 4.26220703 C-5.84879338 4.13388687 -8.79999094 3.71574438 -11.875 3.1328125 C-11.875 2.4728125 -11.875 1.8128125 -11.875 1.1328125 C-7.86347099 0.18007436 -4.11813059 0.00387459 0 0 Z " fill="#A20717" transform="translate(191.875,174.8671875)"/>
<path d="M0 0 C8.25 0 16.5 0 25 0 C25 1.98 25 3.96 25 6 C24.34926514 5.99476318 23.69853027 5.98952637 23.02807617 5.98413086 C20.08122726 5.96335062 17.13439377 5.9503365 14.1875 5.9375 C13.16333984 5.92912109 12.13917969 5.92074219 11.08398438 5.91210938 C10.10107422 5.90888672 9.11816406 5.90566406 8.10546875 5.90234375 C7.19949951 5.89710693 6.29353027 5.89187012 5.36010742 5.88647461 C2.84715961 5.90079019 2.84715961 5.90079019 0 7 C0 4.69 0 2.38 0 0 Z " fill="#446AA3" transform="translate(128,264)"/>
<path d="M0 0 C4.15654359 0.46183818 6.21466571 0.88009102 9 4 C8.57576756 5.46224799 8.13509755 6.91973412 7.6875 8.375 C7.44386719 9.18710938 7.20023437 9.99921875 6.94921875 10.8359375 C6 13 6 13 3 15 C2.01 15 1.02 15 0 15 C0 17.31 0 19.62 0 22 C-0.99 21.67 -1.98 21.34 -3 21 C-2.34 21 -1.68 21 -1 21 C-1 16.38 -1 11.76 -1 7 C-2.65 6.67 -4.3 6.34 -6 6 C-5.67 5.34 -5.34 4.68 -5 4 C-4.34 4 -3.68 4 -3 4 C-1.36323743 2.0399719 -1.36323743 2.0399719 0 0 Z " fill="#A64821" transform="translate(267,208)"/>
<path d="M0 0 C1.32 0 2.64 0 4 0 C4 11.88 4 23.76 4 36 C3.34 34.68 2.68 33.36 2 32 C1.34 32 0.68 32 0 32 C0 21.44 0 10.88 0 0 Z " fill="#BEA900" transform="translate(160,225)"/>
<path d="M0 0 C4.95 0 9.9 0 15 0 C16.88343932 3.76687864 17.22057835 5.02958963 17 9 C10.43507888 9.78441153 4.53162622 10.10914408 -2 9 C-2 7.35 -2 5.7 -2 4 C3.28 4 8.56 4 14 4 C14 3.34 14 2.68 14 2 C9.38 2.33 4.76 2.66 0 3 C0 2.01 0 1.02 0 0 Z " fill="#958203" transform="translate(133,255)"/>
<path d="M0 0 C0.99 0 1.98 0 3 0 C3 14.52 3 29.04 3 44 C2.01 44 1.02 44 0 44 C0 29.48 0 14.96 0 0 Z " fill="#AE0D18" transform="translate(183,226)"/>
<path d="M0 0 C2.64 0 5.28 0 8 0 C8 0.99 8 1.98 8 3 C9.65 3 11.3 3 13 3 C13 2.34 13 1.68 13 1 C17.455 0.505 17.455 0.505 22 0 C22 0.99 22 1.98 22 3 C21.34 3 20.68 3 20 3 C20 3.66 20 4.32 20 5 C20.99 5 21.98 5 23 5 C23 6.32 23 7.64 23 9 C18.29538677 10.86132673 14.1242304 11.2509496 9.125 11.125 C8.43664062 11.11597656 7.74828125 11.10695312 7.0390625 11.09765625 C5.35922162 11.07432513 3.67956254 11.03846326 2 11 C2 10.67 2 10.34 2 10 C6.95 9.67 11.9 9.34 17 9 C17 8.34 17 7.68 17 7 C14.03 6.67 11.06 6.34 8 6 C8 5.67 8 5.34 8 5 C6.865625 4.731875 5.73125 4.46375 4.5625 4.1875 C3.386875 3.795625 2.21125 3.40375 1 3 C0.67 2.01 0.34 1.02 0 0 Z " fill="#BDA80D" transform="translate(203,169)"/>
<path d="M0 0 C0.99 0 1.98 0 3 0 C3 14.19 3 28.38 3 43 C2.01 43 1.02 43 0 43 C0 28.81 0 14.62 0 0 Z " fill="#AE0E19" transform="translate(174,226)"/>
<path d="M0 0 C0.8353125 0.680625 0.8353125 0.680625 1.6875 1.375 C4.05313439 3.03733768 6.29015658 4.02144543 9 5 C8.67 6.65 8.34 8.3 8 10 C4.98968256 10.93423645 4.13349732 11.04449911 1 10 C1 10.66 1 11.32 1 12 C1.99 12.33 2.98 12.66 4 13 C1.36 13 -1.28 13 -4 13 C-3.67 12.34 -3.34 11.68 -3 11 C-5.475 10.01 -5.475 10.01 -8 9 C-8 7.68 -8 6.36 -8 5 C-6.865625 4.54625 -5.73125 4.0925 -4.5625 3.625 C-0.95278308 2.42904194 -0.95278308 2.42904194 0 0 Z " fill="#713509" transform="translate(140,168)"/>
<path d="M0 0 C1.65 0 3.3 0 5 0 C4.67 1.65 4.34 3.3 4 5 C4.66 5.33 5.32 5.66 6 6 C5.34 6 4.68 6 4 6 C4 6.66 4 7.32 4 8 C3.01 8 2.02 8 1 8 C3.46278801 10.46278801 5.70676982 10.99771255 9 12 C9 13.65 9 15.3 9 17 C8.01 16.67 7.02 16.34 6 16 C5.67 17.32 5.34 18.64 5 20 C5.66 20.33 6.32 20.66 7 21 C6.34 21.66 5.68 22.32 5 23 C3.35 22.67 1.7 22.34 0 22 C0 18.37 0 14.74 0 11 C-0.66 11 -1.32 11 -2 11 C-2 9.02 -2 7.04 -2 5 C-1.01 5 -0.02 5 1 5 C0.67 3.35 0.34 1.7 0 0 Z " fill="#8C7B00" transform="translate(172,190)"/>
<path d="M0 0 C0.33 1.32 0.66 2.64 1 4 C2.32 4 3.64 4 5 4 C6.25 10.625 6.25 10.625 4 14 C3.01 14 2.02 14 1 14 C1.33 15.98 1.66 17.96 2 20 C1.01 19.67 0.02 19.34 -1 19 C-1.309375 18.195625 -1.61875 17.39125 -1.9375 16.5625 C-3.21846239 13.47312011 -4.11813443 13.39445108 -7 12 C-7.9375 10.0625 -7.9375 10.0625 -8 8 C-6.15840327 5.51384442 -4.99529289 4.99843096 -2 4 C-0.79117904 1.99983534 -0.79117904 1.99983534 0 0 Z " fill="#C29306" transform="translate(230,236)"/>
<path d="M0 0 C0.33 0 0.66 0 1 0 C1 7.26 1 14.52 1 22 C3.64 22 6.28 22 9 22 C9 16.06 9 10.12 9 4 C11.97 4.495 11.97 4.495 15 5 C14.67 10.94 14.34 16.88 14 23 C9.38 23 4.76 23 0 23 C0 15.41 0 7.82 0 0 Z " fill="#ABA497" transform="translate(253,232)"/>
<path d="M0 0 C1.65 0 3.3 0 5 0 C6.15941038 3.47823115 5.70820884 5.45895578 5 9 C6.65 9 8.3 9 10 9 C9.67 9.66 9.34 10.32 9 11 C7.02 11 5.04 11 3 11 C3 11.66 3 12.32 3 13 C2.01 13.495 2.01 13.495 1 14 C0.34444881 16.52733235 0.34444881 16.52733235 0 19 C-2.97 19 -5.94 19 -9 19 C-9 17.02 -9 15.04 -9 13 C-4.545 12.505 -4.545 12.505 0 12 C-1.32 11.34 -2.64 10.68 -4 10 C-3.01 9.67 -2.02 9.34 -1 9 C-0.67 8.01 -0.34 7.02 0 6 C1 5 1 5 3 4 C3 3.34 3 2.68 3 2 C2.01 1.67 1.02 1.34 0 1 C0 0.67 0 0.34 0 0 Z " fill="#9E8C01" transform="translate(178,200)"/>
<path d="M0 0 C0.99 0 1.98 0 3 0 C3 13.2 3 26.4 3 40 C2.01 39.67 1.02 39.34 0 39 C0 26.13 0 13.26 0 0 Z " fill="#AC0D19" transform="translate(165,226)"/>
<path d="M0 0 C0.36625971 4.51720311 0.36625971 4.51720311 -1.375 6.8125 C-3 8 -3 8 -5 8 C-5 8.66 -5 9.32 -5 10 C-5.66 10 -6.32 10 -7 10 C-7 10.66 -7 11.32 -7 12 C-8.32 12 -9.64 12 -11 12 C-11 11.34 -11 10.68 -11 10 C-13.95377498 7.63019987 -13.95377498 7.63019987 -18 8 C-18 8.66 -18 9.32 -18 10 C-19.65 10 -21.3 10 -23 10 C-23 9.01 -23 8.02 -23 7 C-21.35 6.34 -19.7 5.68 -18 5 C-19.32 4.67 -20.64 4.34 -22 4 C-21.360625 3.71125 -20.72125 3.4225 -20.0625 3.125 C-17.84793921 2.17176549 -17.84793921 2.17176549 -17 0 C-16.34 0 -15.68 0 -15 0 C-14.67 1.32 -14.34 2.64 -14 4 C-12.35 4.33 -10.7 4.66 -9 5 C-8.67 3.68 -8.34 2.36 -8 1 C-7.67 1 -7.34 1 -7 1 C-7 2.65 -7 4.3 -7 6 C-5.35 5.34 -3.7 4.68 -2 4 C-3.32 2.68 -4.64 1.36 -6 0 C-3 -1 -3 -1 0 0 Z " fill="#979118" transform="translate(234,162)"/>
<path d="M0 0 C0.66 0 1.32 0 2 0 C2 2.31 2 4.62 2 7 C5.01031744 7.93423645 5.86650268 8.04449911 9 7 C9.66 7.66 10.32 8.32 11 9 C7.78548731 10.60725635 4.56387464 10.05748185 1 10 C1.185625 11.11375 1.37125 12.2275 1.5625 13.375 C2 17 2 17 1 19 C4.0109362 16.9927092 4.63016497 16.16115776 6 13 C6.99 13.33 7.98 13.66 9 14 C8.01 14.495 8.01 14.495 7 15 C7.33 15.99 7.66 16.98 8 18 C7.01 18.33 6.02 18.66 5 19 C4.26676204 21.01508358 4.26676204 21.01508358 4 23 C5.65 23.33 7.3 23.66 9 24 C9.33 24.99 9.66 25.98 10 27 C9.34 27 8.68 27 8 27 C8 26.34 8 25.68 8 25 C6.906875 24.979375 5.81375 24.95875 4.6875 24.9375 C1 24 1 24 -0.9375 21.375 C-3.0232697 15.33389874 -2.21937151 8.31302444 -2 2 C-1.34 2 -0.68 2 0 2 C0 1.34 0 0.68 0 0 Z " fill="#C39A04" transform="translate(207,237)"/>
<path d="M0 0 C2.24993359 -0.02707139 4.49996095 -0.04642829 6.75 -0.0625 C8.00296875 -0.07410156 9.2559375 -0.08570313 10.546875 -0.09765625 C14 0 14 0 18 1 C18.33 3.97 18.66 6.94 19 10 C13.06 9.34 7.12 8.68 1 8 C1.99 7.67 2.98 7.34 4 7 C4.67156616 5.06381575 4.67156616 5.06381575 5 3 C5.33 2.34 5.66 1.68 6 1 C4.02 1 2.04 1 0 1 C0 0.67 0 0.34 0 0 Z " fill="#A11518" transform="translate(142,205)"/>
<path d="M0 0 C0 7.59 0 15.18 0 23 C-4.29 23 -8.58 23 -13 23 C-13 17.06 -13 11.12 -13 5 C-12.67 5 -12.34 5 -12 5 C-12 10.61 -12 16.22 -12 22 C-9.36 22 -6.72 22 -4 22 C-4 15.07 -4 8.14 -4 1 C-2 0 -2 0 0 0 Z " fill="#A7A7A7" transform="translate(147,232)"/>
<path d="M0 0 C3 2.3125 3 2.3125 5 5 C4.8125 7.3125 4.8125 7.3125 4 9 C-1.13503344 8.35812082 -5.9943454 7.31727753 -11 6 C-11 4.35 -11 2.7 -11 1 C-7.20885096 -1.57798134 -4.3267358 -1.13861468 0 0 Z " fill="#FBC200" transform="translate(215,140)"/>
<path d="M0 0 C2.64850992 2.64850992 4.33103223 5.66206447 6 9 C5.0625 11.125 5.0625 11.125 4 13 C3.34 11.35 2.68 9.7 2 8 C0.68 8.33 -0.64 8.66 -2 9 C-2.33 10.32 -2.66 11.64 -3 13 C-2.34 13 -1.68 13 -1 13 C-0.67 11.35 -0.34 9.7 0 8 C0.66 8.33 1.32 8.66 2 9 C2 10.98 2 12.96 2 15 C2.66 14.67 3.32 14.34 4 14 C5.99960012 13.960008 8.00047242 13.95653201 10 14 C8.10283965 16.56674636 6.90835687 17.02291078 3.75 17.8125 C-0.35934854 18.01796743 -3.17858382 17.49859458 -7 16 C-7.66 15.01 -8.32 14.02 -9 13 C-7.35 13 -5.7 13 -4 13 C-4.268125 12.34 -4.53625 11.68 -4.8125 11 C-5.09837552 6.42599171 -2.59477686 3.61832206 0 0 Z " fill="#8C8479" transform="translate(200,256)"/>
<path d="M0 0 C0.66 0 1.32 0 2 0 C2 0.99 2 1.98 2 3 C3.65 3.33 5.3 3.66 7 4 C6.01 4.495 6.01 4.495 5 5 C4.34227572 8.02934491 4.34227572 8.02934491 4 11 C4.66 11.33 5.32 11.66 6 12 C5.01 12.66 4.02 13.32 3 14 C4.65 14.33 6.3 14.66 8 15 C8 15.66 8 16.32 8 17 C6.02 17 4.04 17 2 17 C2 16.34 2 15.68 2 15 C-1.63 15 -5.26 15 -9 15 C-6 12 -6 12 -3.875 11.5 C-3.25625 11.335 -2.6375 11.17 -2 11 C-1.67 10.01 -1.34 9.02 -1 8 C-3.97 7.505 -3.97 7.505 -7 7 C-5 4 -5 4 -1.875 3.3125 C-0.92625 3.209375 0.0225 3.10625 1 3 C0.67 2.01 0.34 1.02 0 0 Z " fill="#926B0D" transform="translate(182,155)"/>
<path d="M0 0 C1 1 1 1 1.0625 3.5625 C1.041875 4.366875 1.02125 5.17125 1 6 C-0.55966218 6.508783 -2.12289241 7.00663469 -3.6875 7.5 C-4.55761719 7.7784375 -5.42773438 8.056875 -6.32421875 8.34375 C-8.99391677 8.99850805 -11.26396684 9.11831495 -14 9 C-14.36474164 3.52887538 -14.36474164 3.52887538 -12.75 1.1875 C-8.51813308 -1.68412398 -4.90538988 -0.92554526 0 0 Z " fill="#FBC200" transform="translate(195,140)"/>
<path d="M0 0 C0.66 0 1.32 0 2 0 C2 1.32 2 2.64 2 4 C4.31 4.33 6.62 4.66 9 5 C8.38722388 7.96175123 7.74627478 9.38058783 6 12 C3.6171875 12.29296875 3.6171875 12.29296875 0.875 12.1875 C-0.03507812 12.16042969 -0.94515625 12.13335937 -1.8828125 12.10546875 C-2.58148438 12.07066406 -3.28015625 12.03585938 -4 12 C-2.68 11.67 -1.36 11.34 0 11 C0 10.34 0 9.68 0 9 C-0.5775 9.20625 -1.155 9.4125 -1.75 9.625 C-4.51967567 10.08661261 -5.64561267 9.42944945 -8 8 C-8 7.01 -8 6.02 -8 5 C-5.36 4.34 -2.72 3.68 0 3 C0 2.01 0 1.02 0 0 Z " fill="#6C4B07" transform="translate(259,169)"/>
<path d="M0 0 C4.29 0 8.58 0 13 0 C14.33249935 3.99749805 14.26257566 7.68801222 14.3125 11.875 C14.34150391 12.67808594 14.37050781 13.48117188 14.40039062 14.30859375 C14.44393664 18.37512115 14.29778087 20.5009472 12.16796875 24.0703125 C10 26 10 26 7 26 C7 24.35 7 22.7 7 21 C6.34 21 5.68 21 5 21 C5 22.32 5 23.64 5 25 C4.34 25 3.68 25 3 25 C2.67 23.02 2.34 21.04 2 19 C5.3 19 8.6 19 12 19 C12 13.72 12 8.44 12 3 C8.04 3 4.08 3 0 3 C0 2.01 0 1.02 0 0 Z " fill="#AA931C" transform="translate(254,187)"/>
<path d="M0 0 C0.33 0 0.66 0 1 0 C1.29363808 4.99184736 1.07836372 7.97444744 -2 12 C-5.13871188 13.56935594 -7.53855822 13.35201103 -11 13 C-13.9375 10.8125 -13.9375 10.8125 -16 8 C-16.3125 5.1875 -16.3125 5.1875 -16 3 C-13.69 3 -11.38 3 -9 3 C-9.50603992 5.16874252 -9.99983813 6.99967627 -11 9 C-10.34 9 -9.68 9 -9 9 C-8.34 9.66 -7.68 10.32 -7 11 C-6.9071875 9.6078125 -6.9071875 9.6078125 -6.8125 8.1875 C-6 5 -6 5 -3.5 3.25 C-2.675 2.8375 -1.85 2.425 -1 2 C-0.67 1.34 -0.34 0.68 0 0 Z " fill="#0155B3" transform="translate(208,222)"/>
<path d="M0 0 C2 2 2 2 2 5 C3.32 5.33 4.64 5.66 6 6 C6 6.66 6 7.32 6 8 C4.68 8.33 3.36 8.66 2 9 C1.67 7.68 1.34 6.36 1 5 C0.01 5 -0.98 5 -2 5 C-1.938125 6.175625 -1.938125 6.175625 -1.875 7.375 C-2 10 -2 10 -4 12 C-7.29714793 11.67028521 -8.6226839 11.3773161 -11 9 C-11 8.01 -11 7.02 -11 6 C-12.65 6.33 -14.3 6.66 -16 7 C-16.33 5.68 -16.66 4.36 -17 3 C-16.36191406 3.15597656 -15.72382813 3.31195313 -15.06640625 3.47265625 C-14.24011719 3.66730469 -13.41382813 3.86195313 -12.5625 4.0625 C-11.73878906 4.25972656 -10.91507813 4.45695313 -10.06640625 4.66015625 C-9.38449219 4.77230469 -8.70257813 4.88445312 -8 5 C-7.67 4.67 -7.34 4.34 -7 4 C-5.33382885 3.95936168 -3.66611905 3.957279 -2 4 C-1.34 2.68 -0.68 1.36 0 0 Z " fill="#A9771A" transform="translate(219,154)"/>
<path d="M0 0 C0 0.66 0 1.32 0 2 C-1 3 -2 4 -3 5 C-3.33 5.99 -3.66 6.98 -4 8 C-4.66 8 -5.32 8 -6 8 C-6 7.34 -6 6.68 -6 6 C-13.95185358 7.26313949 -13.95185358 7.26313949 -21 11 C-21.33 10.67 -21.66 10.34 -22 10 C-22.33 10.66 -22.66 11.32 -23 12 C-23.66 12 -24.32 12 -25 12 C-24.67 10.68 -24.34 9.36 -24 8 C-23.34 8 -22.68 8 -22 8 C-22 7.34 -22 6.68 -22 6 C-21.34 6 -20.68 6 -20 6 C-20 5.34 -20 4.68 -20 4 C-13.38527392 1.84479212 -7.01888471 0 0 0 Z " fill="#B89E42" transform="translate(182,138)"/>
<path d="M0 0 C0.66 0 1.32 0 2 0 C2.33 2.31 2.66 4.62 3 7 C3.66 6.67 4.32 6.34 5 6 C4.34 6 3.68 6 3 6 C3 4.68 3 3.36 3 2 C5.475 2.99 5.475 2.99 8 4 C8 5.65 8 7.3 8 9 C8.99 9.33 9.98 9.66 11 10 C10.01 10 9.02 10 8 10 C7.855625 11.27875 7.71125 12.5575 7.5625 13.875 C7.29357254 16.25692894 7.07773654 17.84452691 6 20 C4.68 20 3.36 20 2 20 C1.66533626 17.04181155 1.33220993 14.08346412 1 11.125 C0.90460938 10.28324219 0.80921875 9.44148437 0.7109375 8.57421875 C0.62070313 7.76855469 0.53046875 6.96289062 0.4375 6.1328125 C0.35371094 5.38918457 0.26992187 4.64555664 0.18359375 3.87939453 C0 2 0 2 0 0 Z " fill="#B3A757" transform="translate(196,137)"/>
<path d="M0 0 C0.99 0.33 1.98 0.66 3 1 C3 2.65 3 4.3 3 6 C3.99 6.33 4.98 6.66 6 7 C5.67 9.64 5.34 12.28 5 15 C2.75 14.875 2.75 14.875 0 14 C-2.40778045 11.13669351 -3.8129326 9.00548728 -4.5 5.3125 C-4 3 -4 3 -2.1875 1.125 C-1.465625 0.75375 -0.74375 0.3825 0 0 Z " fill="#A31616" transform="translate(129,208)"/>
<path d="M0 0 C6.93 0.495 6.93 0.495 14 1 C14 6.28 14 11.56 14 17 C11.36 17 8.72 17 6 17 C7.32 16.67 8.64 16.34 10 16 C10 11.38 10 6.76 10 2 C7.36 2 4.72 2 2 2 C2 6.62 2 11.24 2 16 C1.67 16 1.34 16 1 16 C0.67 10.72 0.34 5.44 0 0 Z " fill="#9B8A5F" transform="translate(252,189)"/>
<path d="M0 0 C4.71910453 -0.32545548 7.18800694 -0.39149665 11.5 1.6875 C14 4 14 4 14.375 6.75 C14.25125 7.4925 14.1275 8.235 14 9 C13.41992188 8.86722656 12.83984375 8.73445312 12.2421875 8.59765625 C7.84229018 7.60295999 3.46105842 6.68631668 -1 6 C-0.67 4.02 -0.34 2.04 0 0 Z " fill="#FCC300" transform="translate(224,144)"/>
<path d="M0 0 C0.33 1.98 0.66 3.96 1 6 C-0.9363704 6.50435694 -2.87414146 7.00333874 -4.8125 7.5 C-5.89144531 7.7784375 -6.97039062 8.056875 -8.08203125 8.34375 C-11 9 -11 9 -14 9 C-14.375 6.75 -14.375 6.75 -14 4 C-9.38976893 -0.26446374 -5.94975001 -0.41032759 0 0 Z " fill="#FCC300" transform="translate(176,144)"/>
<path d="M0 0 C0.66 0 1.32 0 2 0 C2 1.32 2 2.64 2 4 C0.68 4.33 -0.64 4.66 -2 5 C-0.17251097 7.46313739 1.22976216 8.83428618 4.26953125 9.48828125 C6.51479346 9.72518293 8.74455578 9.90361349 11 10 C11 10.33 11 10.66 11 11 C2.42074525 11.47273445 -5.76273633 10.529188 -14 8 C-14.33 7.34 -14.66 6.68 -15 6 C-14.08476562 5.73445313 -13.16953125 5.46890625 -12.2265625 5.1953125 C-11.03804687 4.84210938 -9.84953125 4.48890625 -8.625 4.125 C-7.44164062 3.77695312 -6.25828125 3.42890625 -5.0390625 3.0703125 C-1.93508442 2.22312581 -1.93508442 2.22312581 0 0 Z " fill="#B8B4A9" transform="translate(194,265)"/>
<path d="M0 0 C2.72901554 3.21633974 2.0207357 5.93378065 1.75 10.0625 C-2.68076923 12.15480769 -2.68076923 12.15480769 -5.5625 11.6875 C-6.119375 11.48125 -6.67625 11.275 -7.25 11.0625 C-6.92 8.7525 -6.59 6.4425 -6.25 4.0625 C-7.24 3.7325 -8.23 3.4025 -9.25 3.0625 C-7.70543876 1.28625457 -6.46987969 0.1618005 -4.3125 -0.8125 C-2.25 -0.9375 -2.25 -0.9375 0 0 Z " fill="#D46795" transform="translate(224.25,186.9375)"/>
<path d="M0 0 C0.99 0.33 1.98 0.66 3 1 C3.08674429 5.45821166 3.14030513 9.91620804 3.1875 14.375 C3.21263672 15.64601562 3.23777344 16.91703125 3.26367188 18.2265625 C3.27333984 19.43828125 3.28300781 20.65 3.29296875 21.8984375 C3.3086792 23.01911621 3.32438965 24.13979492 3.34057617 25.29443359 C3.22818604 26.18727051 3.1157959 27.08010742 3 28 C2.01 28.66 1.02 29.32 0 30 C0 20.1 0 10.2 0 0 Z " fill="#AC0C18" transform="translate(192,237)"/>
<path d="M0 0 C1.32 0 2.64 0 4 0 C4 0.66 4 1.32 4 2 C4.66 2 5.32 2 6 2 C6 4.64 6 7.28 6 10 C5.01 10.33 4.02 10.66 3 11 C3 11.66 3 12.32 3 13 C2.34 13 1.68 13 1 13 C0.67 13.99 0.34 14.98 0 16 C-1.65 16 -3.3 16 -5 16 C-5 14.35 -5 12.7 -5 11 C-4.01 10.67 -3.02 10.34 -2 10 C-2 9.34 -2 8.68 -2 8 C-0.02 7.67 1.96 7.34 4 7 C2.68 6.67 1.36 6.34 0 6 C0 4.02 0 2.04 0 0 Z " fill="#786904" transform="translate(183,203)"/>
<path d="M0 0 C1.32 0 2.64 0 4 0 C4.11644156 3.08301416 4.18732432 6.16546123 4.25 9.25 C4.30027344 10.55904297 4.30027344 10.55904297 4.3515625 11.89453125 C4.37089844 13.16103516 4.37089844 13.16103516 4.390625 14.453125 C4.41157227 15.22817383 4.43251953 16.00322266 4.45410156 16.80175781 C4 19 4 19 0 23 C0 15.41 0 7.82 0 0 Z " fill="#BDA802" transform="translate(196,239)"/>
<path d="M0 0 C4.29 0 8.58 0 13 0 C13 4.62 13 9.24 13 14 C11.68 14 10.36 14 9 14 C9 9.71 9 5.42 9 1 C6.36 1 3.72 1 1 1 C1.33 5.95 1.66 10.9 2 16 C1.34 16 0.68 16 0 16 C0 10.72 0 5.44 0 0 Z " fill="#A8AAAB" transform="translate(134,191)"/>
<path d="M0 0 C0.66 1.32 1.32 2.64 2 4 C2.99 4 3.98 4 5 4 C4.01923077 12.5 4.01923077 12.5 2 15 C-1.125 15.75 -1.125 15.75 -4 16 C-4 15.01 -4 14.02 -4 13 C-3.01 13 -2.02 13 -1 13 C-1.66 10.69 -2.32 8.38 -3 6 C-2.34 6 -1.68 6 -1 6 C-0.67 4.02 -0.34 2.04 0 0 Z " fill="#A38B00" transform="translate(239,147)"/>
<path d="M0 0 C0.33 0.99 0.66 1.98 1 3 C1.66 3 2.32 3 3 3 C3 2.01 3 1.02 3 0 C3.99 0.33 4.98 0.66 6 1 C6.33 3.31 6.66 5.62 7 8 C6.01 8 5.02 8 4 8 C4 7.34 4 6.68 4 6 C2.02 6 0.04 6 -2 6 C-1.67 6.66 -1.34 7.32 -1 8 C-0.92934383 10.04055005 -0.91578024 12.08334257 -0.9375 14.125 C-0.94652344 15.22070312 -0.95554688 16.31640625 -0.96484375 17.4453125 C-0.97644531 18.28835937 -0.98804688 19.13140625 -1 20 C-1.33 18.68 -1.66 17.36 -2 16 C-3.32 15.67 -4.64 15.34 -6 15 C-4.68 15 -3.36 15 -2 15 C-2.27034634 12.56282742 -2.27034634 12.56282742 -3 10 C-3.99 9.34 -4.98 8.68 -6 8 C-5.01 7.67 -4.02 7.34 -3 7 C-2.87625 6.030625 -2.7525 5.06125 -2.625 4.0625 C-2.41875 3.051875 -2.2125 2.04125 -2 1 C-1.34 0.67 -0.68 0.34 0 0 Z " fill="#9F8417" transform="translate(198,131)"/>
<path d="M0 0 C2 1 2 1 2.875 3.4375 C3.77050152 6.13605515 3.77050152 6.13605515 6.125 7.3125 C6.74375 7.539375 7.3625 7.76625 8 8 C8 9.32 8 10.64 8 12 C6.35 12.33 4.7 12.66 3 13 C3 13.66 3 14.32 3 15 C2.01 15 1.02 15 0 15 C0 10.05 0 5.1 0 0 Z " fill="#AD1418" transform="translate(221,248)"/>
<path d="M0 0 C1.32 0.33 2.64 0.66 4 1 C4 1.66 4 2.32 4 3 C4.94875 2.95875 5.8975 2.9175 6.875 2.875 C10 3 10 3 12 5 C10.35 5 8.7 5 7 5 C7 5.66 7 6.32 7 7 C11.95 7.33 16.9 7.66 22 8 C22 8.33 22 8.66 22 9 C19.62468606 9.0543965 17.25064117 9.09385864 14.875 9.125 C14.20984375 9.14175781 13.5446875 9.15851563 12.859375 9.17578125 C8.50483944 9.21847278 5.04399886 8.59996217 1 7 C0.67 4.69 0.34 2.38 0 0 Z " fill="#A08801" transform="translate(173,171)"/>
<path d="M0 0 C-1.875 6.875 -1.875 6.875 -3 8 C-3.07244053 10.01964199 -3.08377188 12.04167124 -3.0625 14.0625 C-3.05347656 15.16722656 -3.04445312 16.27195313 -3.03515625 17.41015625 C-3.02355469 18.26480469 -3.01195312 19.11945313 -3 20 C-3.66 20.33 -4.32 20.66 -5 21 C-7.125 20.0625 -7.125 20.0625 -9 19 C-7.68 19 -6.36 19 -5 19 C-5.16242188 18.45472656 -5.32484375 17.90945312 -5.4921875 17.34765625 C-6.07482363 14.6540846 -6.13249582 12.19221439 -6.125 9.4375 C-6.12886719 8.01244141 -6.12886719 8.01244141 -6.1328125 6.55859375 C-6 4 -6 4 -5 1 C-2 0 -2 0 0 0 Z " fill="#B17691" transform="translate(236,186)"/>
<path d="M0 0 C0.33 0 0.66 0 1 0 C1 4.62 1 9.24 1 14 C0.01 14 -0.98 14 -2 14 C-2 13.34 -2 12.68 -2 12 C-3.65 11.67 -5.3 11.34 -7 11 C-6.75 8.625 -6.75 8.625 -6 6 C-4.0625 4.9375 -4.0625 4.9375 -2 4 C-0.73195434 1.9664052 -0.73195434 1.9664052 0 0 Z " fill="#AD1118" transform="translate(218,249)"/>
<path d="M0 0 C1.32 0.33 2.64 0.66 4 1 C4 5.62 4 10.24 4 15 C1.03 14.505 1.03 14.505 -2 14 C-1.34 13.67 -0.68 13.34 0 13 C0 8.71 0 4.42 0 0 Z " fill="#B1B1B2" transform="translate(262,214)"/>
<path d="M0 0 C0.99 0 1.98 0 3 0 C3.33 0.99 3.66 1.98 4 3 C5.5778125 2.87625 5.5778125 2.87625 7.1875 2.75 C11.53763669 3.03525487 12.9315153 4.02449969 16 7 C15.34 7.66 14.68 8.32 14 9 C12.68 9 11.36 9 10 9 C9.67 7.68 9.34 6.36 9 5 C8.67 5.99 8.34 6.98 8 8 C6.35 8 4.7 8 3 8 C2.67 6.35 2.34 4.7 2 3 C1.34 3 0.68 3 0 3 C0 2.01 0 1.02 0 0 Z " fill="#960F11" transform="translate(217,159)"/>
<path d="M0 0 C2.475 0.99 2.475 0.99 5 2 C5 2.66 5 3.32 5 4 C5.99 4.33 6.98 4.66 8 5 C8 5.66 8 6.32 8 7 C7.01 7 6.02 7 5 7 C5.33 9.31 5.66 11.62 6 14 C5.01 14.33 4.02 14.66 3 15 C2.26676204 17.01508358 2.26676204 17.01508358 2 19 C2 18.34 2 17.68 2 17 C1.05125 17.20625 0.1025 17.4125 -0.875 17.625 C-1.90625 17.74875 -2.9375 17.8725 -4 18 C-4.66 17.34 -5.32 16.68 -6 16 C-5.67 15.01 -5.34 14.02 -5 13 C-5 13.66 -5 14.32 -5 15 C-4.01 14.67 -3.02 14.34 -2 14 C-1.01 14.33 -0.02 14.66 1 15 C3.35598629 13.06994771 3.35598629 13.06994771 3.3125 9.625 C2.98644634 5.84277757 2.44025356 4.74528525 0 2 C0 1.34 0 0.68 0 0 Z " fill="#9A6179" transform="translate(222,183)"/>
<path d="M0 0 C0.66 0.33 1.32 0.66 2 1 C2.05416188 2.60379341 2.09286638 4.20811406 2.125 5.8125 C2.14820313 6.70582031 2.17140625 7.59914062 2.1953125 8.51953125 C2 11 2 11 0 14 C-0.99 14.33 -1.98 14.66 -3 15 C-3 10.38 -3 5.76 -3 1 C-2.01 0.67 -1.02 0.34 0 0 Z " fill="#AF1F17" transform="translate(204,239)"/>
<path d="M0 0 C1 1 1 1 1.0625 4.0625 C1.041875 5.031875 1.02125 6.00125 1 7 C-1.97 7 -4.94 7 -8 7 C-8 5.02 -8 3.04 -8 1 C-5.05549278 0.01849759 -3.06481021 -0.1613058 0 0 Z " fill="#9C8B0A" transform="translate(177,212)"/>
<path d="M0 0 C0.99 0 1.98 0 3 0 C3.33 4.95 3.66 9.9 4 15 C-1 14 -1 14 -2 13 C-2.04063832 11.33382885 -2.042721 9.66611905 -2 8 C-1.34 7.67 -0.68 7.34 0 7 C0 4.69 0 2.38 0 0 Z " fill="#C9CACA" transform="translate(227,190)"/>
<path d="M0 0 C3.39615186 0.54307834 6.2107853 2.00290298 9.25 3.5625 C10.14203125 4.01753906 11.0340625 4.47257812 11.953125 4.94140625 C12.96632812 5.46541016 12.96632812 5.46541016 14 6 C10.51570289 8.32286474 9.07045385 8.08480112 5 8 C4.01 8.33 3.02 8.66 2 9 C2 6.69 2 4.38 2 2 C1.34 3.32 0.68 4.64 0 6 C-0.66 6 -1.32 6 -2 6 C-1.125 1.125 -1.125 1.125 0 0 Z " fill="#CDBC9D" transform="translate(199,263)"/>
<path d="M0 0 C2.31 0 4.62 0 7 0 C7 3.96 7 7.92 7 12 C5.68 12.33 4.36 12.66 3 13 C3 9.04 3 5.08 3 1 C2.01 0.67 1.02 0.34 0 0 Z " fill="#A7A8A8" transform="translate(140,213)"/>
<path d="M0 0 C0.66 0.33 1.32 0.66 2 1 C2 2.98 2 4.96 2 7 C2.66 6.67 3.32 6.34 4 6 C5.99960012 5.960008 8.00047242 5.95653201 10 6 C8.10283965 8.56674636 6.90835687 9.02291078 3.75 9.8125 C-0.33105204 10.0165526 -3.19283838 9.44672142 -7 8 C-7.33 7.34 -7.66 6.68 -8 6 C-6.00045254 5.95745644 -3.99958364 5.95919217 -2 6 C-1.67 6.33 -1.34 6.66 -1 7 C-1.020625 6.030625 -1.04125 5.06125 -1.0625 4.0625 C-1 1 -1 1 0 0 Z " fill="#3C4738" transform="translate(200,264)"/>
<path d="M0 0 C0.83402344 -0.00128906 1.66804688 -0.00257813 2.52734375 -0.00390625 C3.39488281 -0.00003906 4.26242187 0.00382812 5.15625 0.0078125 C6.45755859 0.00201172 6.45755859 0.00201172 7.78515625 -0.00390625 C8.61917969 -0.00261719 9.45320313 -0.00132812 10.3125 0 C11.07369141 0.00112793 11.83488281 0.00225586 12.61914062 0.00341797 C14.65625 0.1328125 14.65625 0.1328125 17.65625 1.1328125 C17.65625 1.7928125 17.65625 2.4528125 17.65625 3.1328125 C9.40625 3.1328125 1.15625 3.1328125 -7.34375 3.1328125 C-7.34375 2.4728125 -7.34375 1.8128125 -7.34375 1.1328125 C-4.56353582 0.20607444 -2.87141109 0.00425484 0 0 Z " fill="#0644A4" transform="translate(254.34375,270.8671875)"/>
<path d="M0 0 C0.83402344 -0.00128906 1.66804687 -0.00257813 2.52734375 -0.00390625 C3.39488281 -0.00003906 4.26242188 0.00382812 5.15625 0.0078125 C6.45755859 0.00201172 6.45755859 0.00201172 7.78515625 -0.00390625 C8.61917969 -0.00261719 9.45320313 -0.00132812 10.3125 0 C11.07369141 0.00112793 11.83488281 0.00225586 12.61914062 0.00341797 C14.65625 0.1328125 14.65625 0.1328125 17.65625 1.1328125 C17.65625 1.7928125 17.65625 2.4528125 17.65625 3.1328125 C9.40625 3.1328125 1.15625 3.1328125 -7.34375 3.1328125 C-7.34375 2.4728125 -7.34375 1.8128125 -7.34375 1.1328125 C-4.56353582 0.20607444 -2.87141109 0.00425484 0 0 Z " fill="#09439F" transform="translate(135.34375,270.8671875)"/>
<path d="M0 0 C5.61 0 11.22 0 17 0 C17 0.99 17 1.98 17 3 C11.39 3 5.78 3 0 3 C0 2.01 0 1.02 0 0 Z " fill="#C9B100" transform="translate(251,260)"/>
<path d="M0 0 C5.61 0 11.22 0 17 0 C17 0.99 17 1.98 17 3 C11.39 3 5.78 3 0 3 C0 2.01 0 1.02 0 0 Z " fill="#CAB200" transform="translate(132,260)"/>
<path d="M0 0 C5.61 0 11.22 0 17 0 C17 0.99 17 1.98 17 3 C11.39 3 5.78 3 0 3 C0 2.01 0 1.02 0 0 Z " fill="#C9B200" transform="translate(132,182)"/>
<path d="M0 0 C-0.639375 0.4125 -1.27875 0.825 -1.9375 1.25 C-4.20990931 3.17810487 -4.60196439 4.11424181 -5 7 C-4.34 7.33 -3.68 7.66 -3 8 C-2.67 7.34 -2.34 6.68 -2 6 C-2 6.99 -2 7.98 -2 9 C-4.31 9.66 -6.62 10.32 -9 11 C-9 10.01 -9 9.02 -9 8 C-9.99 7.67 -10.98 7.34 -12 7 C-11.67 6.01 -11.34 5.02 -11 4 C-10.01 4 -9.02 4 -8 4 C-7.731875 3.360625 -7.46375 2.72125 -7.1875 2.0625 C-5.22591378 -1.34446554 -3.54735467 -1.18245156 0 0 Z " fill="#A26379" transform="translate(224,206)"/>
<path d="M0 0 C8.57142857 -0.28571429 8.57142857 -0.28571429 12 2 C10.1875 4.5 10.1875 4.5 8 7 C7.01 7 6.02 7 5 7 C5 5.35 5 3.7 5 2 C4.34 2 3.68 2 3 2 C3 3.32 3 4.64 3 6 C2.34 6 1.68 6 1 6 C0.67 4.02 0.34 2.04 0 0 Z " fill="#B25009" transform="translate(256,206)"/>
<path d="M0 0 C1.32 1.32 2.64 2.64 4 4 C3.34 4 2.68 4 2 4 C2.33 4.33 2.66 4.66 3 5 C3.66 5 4.32 5 5 5 C4.67 6.32 4.34 7.64 4 9 C1.69 9 -0.62 9 -3 9 C-3.66 7.35 -4.32 5.7 -5 4 C-4.360625 3.71125 -3.72125 3.4225 -3.0625 3.125 C-0.84793921 2.17176549 -0.84793921 2.17176549 0 0 Z " fill="#897401" transform="translate(140,168)"/>
<path d="M0 0 C2.375 0.25 2.375 0.25 5 1 C6.0625 2.9375 6.0625 2.9375 7 5 C9.0335948 6.26804566 9.0335948 6.26804566 11 7 C10.67 8.32 10.34 9.64 10 11 C8.125 10.8125 8.125 10.8125 6 10 C5.31867549 8.33927151 4.65257873 6.672233 4 5 C1.98264795 3.65589738 1.98264795 3.65589738 0 3 C0 2.01 0 1.02 0 0 Z " fill="#909025" transform="translate(218,244)"/>
<path d="M0 0 C5.3592233 0.46601942 5.3592233 0.46601942 7.875 2.5625 C8.431875 3.2740625 8.431875 3.2740625 9 4 C8.34 6.31 7.68 8.62 7 11 C6.01 11 5.02 11 4 11 C4.33 10.01 4.66 9.02 5 8 C5.03920815 6.00038436 5.04443347 3.99950636 5 2 C3.02 2.99 1.04 3.98 -1 5 C-1 1 -1 1 0 0 Z " fill="#A01116" transform="translate(267,208)"/>
<path d="M0 0 C5.28 0 10.56 0 16 0 C16 0.99 16 1.98 16 3 C10.72 3 5.44 3 0 3 C0 2.01 0 1.02 0 0 Z " fill="#C9B200" transform="translate(252,182)"/>
<path d="M0 0 C2.64 0 5.28 0 8 0 C8 0.99 8 1.98 8 3 C9.65 3 11.3 3 13 3 C13 3.66 13 4.32 13 5 C14.65 5 16.3 5 18 5 C14.1496895 7.56687367 12.41430237 6.83288724 8 6 C8 5.67 8 5.34 8 5 C6.865625 4.731875 5.73125 4.46375 4.5625 4.1875 C3.386875 3.795625 2.21125 3.40375 1 3 C0.67 2.01 0.34 1.02 0 0 Z " fill="#AA9701" transform="translate(203,169)"/>
<path d="M0 0 C0.66 0 1.32 0 2 0 C2.5625 1.9375 2.5625 1.9375 3 4 C2.67 4.33 2.34 4.66 2 5 C4.31 5.33 6.62 5.66 9 6 C9 6.99 9 7.98 9 9 C8.01 9 7.02 9 6 9 C6 8.34 6 7.68 6 7 C4.989375 7.268125 3.97875 7.53625 2.9375 7.8125 C-2.43233303 8.06820633 -3.95774018 6.38229903 -8 3 C-4.71023192 1.90341064 -3.28696233 2.20046862 0 3 C0 2.01 0 1.02 0 0 Z " fill="#AD9819" transform="translate(173,164)"/>
<path d="M0 0 C0.99 0.33 1.98 0.66 3 1 C2.01 1.495 2.01 1.495 1 2 C1.33 2.99 1.66 3.98 2 5 C1.01 5.33 0.02 5.66 -1 6 C-1.73323796 8.01508358 -1.73323796 8.01508358 -2 10 C-0.35 10.33 1.3 10.66 3 11 C3.33 11.99 3.66 12.98 4 14 C3.34 14 2.68 14 2 14 C2 13.34 2 12.68 2 12 C0.865625 11.855625 -0.26875 11.71125 -1.4375 11.5625 C-5 11 -5 11 -6 10 C-6.04063832 8.33382885 -6.042721 6.66611905 -6 5 C-5.38125 4.9175 -4.7625 4.835 -4.125 4.75 C-1.81562433 4.18741541 -1.81562433 4.18741541 -0.75 1.9375 C-0.5025 1.298125 -0.255 0.65875 0 0 Z " fill="#C6A602" transform="translate(213,250)"/>
<path d="M0 0 C0.33 0.99 0.66 1.98 1 3 C1.66 3 2.32 3 3 3 C3 4.32 3 5.64 3 7 C2.34 7 1.68 7 1 7 C1 8.98 1 10.96 1 13 C-0.32 13 -1.64 13 -3 13 C-3.66 11.02 -4.32 9.04 -5 7 C-3.02 7.99 -3.02 7.99 -1 9 C-1.33 7.02 -1.66 5.04 -2 3 C-1.34 3 -0.68 3 0 3 C0 2.01 0 1.02 0 0 Z " fill="#C29405" transform="translate(233,247)"/>
<path d="M0 0 C0 1.65 0 3.3 0 5 C-0.99 4.67 -1.98 4.34 -3 4 C-3.33 5.32 -3.66 6.64 -4 8 C-5.32 7.67 -6.64 7.34 -8 7 C-7.67 4.69 -7.34 2.38 -7 0 C-3.98968256 -0.93423645 -3.13349732 -1.04449911 0 0 Z " fill="#4D575C" transform="translate(181,202)"/>
<path d="M0 0 C5.28798182 0.41474367 8.11690718 1.35224614 12 5 C11.01 5 10.02 5 9 5 C8.34 5.66 7.68 6.32 7 7 C5.01643517 7.71408334 3.01684563 8.38617742 1 9 C0.67 8.01 0.34 7.02 0 6 C0.66 6 1.32 6 2 6 C1.49396008 3.83125748 1.00016187 2.00032373 0 0 Z " fill="#8B1D09" transform="translate(185,157)"/>
<path d="M0 0 C0.99 0 1.98 0 3 0 C3 4.95 3 9.9 3 15 C2.01 15 1.02 15 0 15 C0 10.05 0 5.1 0 0 Z " fill="#BCBCBD" transform="translate(263,191)"/>
<path d="M0 0 C0.33 0.99 0.66 1.98 1 3 C2.32 3 3.64 3 5 3 C4.67 2.34 4.34 1.68 4 1 C4.99 1.33 5.98 1.66 7 2 C8.1875 5.0625 8.1875 5.0625 9 8 C8.01 8 7.02 8 6 8 C5.67 7.34 5.34 6.68 5 6 C2.03 6 -0.94 6 -4 6 C-4.33 5.01 -4.66 4.02 -5 3 C-4.01 3 -3.02 3 -2 3 C-2 2.34 -2 1.68 -2 1 C-1.34 0.67 -0.68 0.34 0 0 Z " fill="#7A6C00" transform="translate(178,195)"/>
<path d="M0 0 C2 2 2 2 2 5 C3.32 5.33 4.64 5.66 6 6 C6 6.66 6 7.32 6 8 C4.68 8.33 3.36 8.66 2 9 C1.67 7.68 1.34 6.36 1 5 C0.4225 5.350625 -0.155 5.70125 -0.75 6.0625 C-3.35801776 7.14917407 -4.39417629 6.93065133 -7 6 C-7 5.34 -7 4.68 -7 4 C-5.35 4 -3.7 4 -2 4 C-1.34 2.68 -0.68 1.36 0 0 Z " fill="#B29D00" transform="translate(219,154)"/>
<path d="M0 0 C1.32 0 2.64 0 4 0 C4 0.66 4 1.32 4 2 C4.53625 1.67 5.0725 1.34 5.625 1 C8.5391061 -0.22699204 10.86867708 -0.14233286 14 0 C14 0.66 14 1.32 14 2 C10.7 2.66 7.4 3.32 4 4 C3.67 3.34 3.34 2.68 3 2 C2.34 2 1.68 2 1 2 C1 3.32 1 4.64 1 6 C1.99 5.67 2.98 5.34 4 5 C3.67 6.32 3.34 7.64 3 9 C3 8.34 3 7.68 3 7 C2.34 7 1.68 7 1 7 C0.67 7.66 0.34 8.32 0 9 C0 6.03 0 3.06 0 0 Z " fill="#938101" transform="translate(198,137)"/>
<path d="M0 0 C1.23556641 0.01740234 1.23556641 0.01740234 2.49609375 0.03515625 C3.32238281 0.04417969 4.14867187 0.05320313 5 0.0625 C5.63808594 0.07410156 6.27617187 0.08570313 6.93359375 0.09765625 C4.30859375 3.97265625 4.30859375 3.97265625 0.93359375 5.09765625 C0.23147481 6.74970081 -0.43612038 8.41689394 -1.06640625 10.09765625 C-2.05640625 10.59265625 -2.05640625 10.59265625 -3.06640625 11.09765625 C-3.09328776 9.45191059 -3.11274748 7.80604212 -3.12890625 6.16015625 C-3.14050781 5.24363281 -3.15210938 4.32710937 -3.1640625 3.3828125 C-3.03823137 0.4383641 -2.94124983 0.13900046 0 0 Z " fill="#AD1317" transform="translate(224.06640625,231.90234375)"/>
<path d="M0 0 C3.63 0 7.26 0 11 0 C11 0.66 11 1.32 11 2 C12.32 2.33 13.64 2.66 15 3 C13.27185839 3.19672365 11.54240803 3.38196799 9.8125 3.5625 C8.84957031 3.66691406 7.88664063 3.77132812 6.89453125 3.87890625 C4.05766623 3.99758751 1.74576329 3.67765639 -1 3 C-0.67 2.01 -0.34 1.02 0 0 Z " fill="#AE1817" transform="translate(214,226)"/>
<path d="M0 0 C1.32 0.33 2.64 0.66 4 1 C3.01 1 2.02 1 1 1 C0.855625 2.27875 0.71125 3.5575 0.5625 4.875 C0.29357254 7.25692894 0.07773654 8.84452691 -1 11 C-2.32 11 -3.64 11 -5 11 C-5 8.69 -5 6.38 -5 4 C-4.01 4.33 -3.02 4.66 -2 5 C-1.34 3.35 -0.68 1.7 0 0 Z " fill="#957C17" transform="translate(203,146)"/>
<path d="M0 0 C0.33 1.32 0.66 2.64 1 4 C1.66 4 2.32 4 3 4 C2.67 5.65 2.34 7.3 2 9 C1.01 9 0.02 9 -1 9 C-1 8.34 -1 7.68 -1 7 C-3.31 7.66 -5.62 8.32 -8 9 C-5.375 5.125 -5.375 5.125 -2 4 C-0.79117904 1.99983534 -0.79117904 1.99983534 0 0 Z " fill="#AE1D17" transform="translate(230,236)"/>
<path d="M0 0 C1.98 0 3.96 0 6 0 C5.67 3.3 5.34 6.6 5 10 C4.01 9.67 3.02 9.34 2 9 C2 7.35 2 5.7 2 4 C1.34 4 0.68 4 0 4 C0 2.68 0 1.36 0 0 Z " fill="#856903" transform="translate(177,185)"/>
<path d="M0 0 C0 0.66 0 1.32 0 2 C-4.70461323 3.86132673 -8.8757696 4.2509496 -13.875 4.125 C-14.56335938 4.11597656 -15.25171875 4.10695312 -15.9609375 4.09765625 C-17.64077838 4.07432513 -19.32043746 4.03846326 -21 4 C-21 3.67 -21 3.34 -21 3 C-16.05 2.67 -11.1 2.34 -6 2 C-6 1.34 -6 0.68 -6 0 C-3.50907189 -1.24546405 -2.58919267 -0.7767578 0 0 Z " fill="#9D8201" transform="translate(226,176)"/>
<path d="M0 0 C0.66 0 1.32 0 2 0 C2 0.66 2 1.32 2 2 C2.66 2 3.32 2 4 2 C3.47731534 4.76276177 2.89130413 7.3260876 2 10 C2.66 10.33 3.32 10.66 4 11 C2.02 11 0.04 11 -2 11 C-1.34 10.67 -0.68 10.34 0 10 C-0.495 8.8553125 -0.495 8.8553125 -1 7.6875 C-2 5 -2 5 -2 2 C-1.34 2 -0.68 2 0 2 C0 1.34 0 0.68 0 0 Z " fill="#BFA703" transform="translate(199,124)"/>
<path d="M0 0 C1.67542976 0.28604898 3.34385343 0.61781233 5 1 C4.49396008 3.16874252 4.00016187 4.99967627 3 7 C1.02 7 -0.96 7 -3 7 C-3 5.35 -3 3.7 -3 2 C-2.67 2.66 -2.34 3.32 -2 4 C-1.34 4 -0.68 4 0 4 C-0.33 3.01 -0.66 2.02 -1 1 C-0.67 0.67 -0.34 0.34 0 0 Z " fill="#807000" transform="translate(186,212)"/>
<path d="M0 0 C0.66 0 1.32 0 2 0 C2.33 1.65 2.66 3.3 3 5 C1.35 5.33 -0.3 5.66 -2 6 C-2.33 6.99 -2.66 7.98 -3 9 C-3.33 8.01 -3.66 7.02 -4 6 C-4.66 5.67 -5.32 5.34 -6 5 C-6 4.01 -6 3.02 -6 2 C-4.35 2 -2.7 2 -1 2 C-0.67 1.34 -0.34 0.68 0 0 Z " fill="#AA5C7B" transform="translate(213,198)"/>
<path d="M0 0 C4.29 0 8.58 0 13 0 C13 0.99 13 1.98 13 3 C8.71 3 4.42 3 0 3 C0 2.01 0 1.02 0 0 Z " fill="#AE9900" transform="translate(135,187)"/>
<path d="M0 0 C0.66 0 1.32 0 2 0 C2.66 0.99 3.32 1.98 4 3 C5.98 2.67 7.96 2.34 10 2 C10.99 3.485 10.99 3.485 12 5 C4.74 5 -2.52 5 -10 5 C-9.01 4.01 -8.02 3.02 -7 2 C-6.67 2.33 -6.34 2.66 -6 3 C-4.33382885 3.04063832 -2.66611905 3.042721 -1 3 C-0.67 2.01 -0.34 1.02 0 0 Z " fill="#B4A000" transform="translate(199,161)"/>
<path d="M0 0 C2 2 2 2 2 6 C2.66 6.33 3.32 6.66 4 7 C3.67 8.98 3.34 10.96 3 13 C2.01 13 1.02 13 0 13 C0 11.35 0 9.7 0 8 C-0.66 8 -1.32 8 -2 8 C-1.125 1.125 -1.125 1.125 0 0 Z " fill="#9B8000" transform="translate(160,147)"/>
<path d="M0 0 C0 0.66 0 1.32 0 2 C-3.3 2.66 -6.6 3.32 -10 4 C-10 3.34 -10 2.68 -10 2 C-10.66 1.67 -11.32 1.34 -12 1 C-7.67265609 -1.22923777 -4.71599818 -0.92470553 0 0 Z " fill="#B79F42" transform="translate(195,136)"/>
<path d="M0 0 C0.928125 0.165 1.85625 0.33 2.8125 0.5 C5.95621353 1.07748388 5.95621353 1.07748388 9 1 C9 3.97 9 6.94 9 10 C8.01 9.67 7.02 9.34 6 9 C5.690625 8.195625 5.38125 7.39125 5.0625 6.5625 C4.23391841 3.85842507 4.23391841 3.85842507 1.875 2.6875 C0.946875 2.3471875 0.946875 2.3471875 0 2 C0 1.34 0 0.68 0 0 Z " fill="#AD0F18" transform="translate(223,246)"/>
<path d="M0 0 C2.64 0.33 5.28 0.66 8 1 C7.01 1.33 6.02 1.66 5 2 C4.67 2.99 4.34 3.98 4 5 C3.67 5.99 3.34 6.98 3 8 C2.01 8.33 1.02 8.66 0 9 C0 6.03 0 3.06 0 0 Z " fill="#AD1318" transform="translate(208,247)"/>
<path d="M0 0 C0 3.3 0 6.6 0 10 C-2 9 -2 9 -2.875 7.0625 C-4.22909764 4.57998766 -5.42178493 4.03128603 -8 3 C-7 1 -7 1 -5.125 0.375 C-3 0 -3 0 0 0 Z " fill="#AC0B19" transform="translate(219,232)"/>
<path d="M0 0 C0.84454356 3.37817425 1.10844919 5.67465243 0 9 C0.66 9.33 1.32 9.66 2 10 C1.01 10 0.02 10 -1 10 C-1.33 8.68 -1.66 7.36 -2 6 C-3.32 5.67 -4.64 5.34 -6 5 C-5.6875 3.0625 -5.6875 3.0625 -5 1 C-2 0 -2 0 0 0 Z " fill="#A35E77" transform="translate(211,188)"/>
<path d="M0 0 C1.65 0 3.3 0 5 0 C4.67 1.65 4.34 3.3 4 5 C4.66 5.33 5.32 5.66 6 6 C5.34 6 4.68 6 4 6 C4 6.66 4 7.32 4 8 C3.01 8 2.02 8 1 8 C1 7.34 1 6.68 1 6 C0.34 5.67 -0.32 5.34 -1 5 C-0.34 5 0.32 5 1 5 C0.67 3.35 0.34 1.7 0 0 Z " fill="#998900" transform="translate(172,190)"/>
<path d="M0 0 C0 1.32 0 2.64 0 4 C-3.63 3.67 -7.26 3.34 -11 3 C-11 2.34 -11 1.68 -11 1 C-7.26562152 0.12132271 -3.83225427 -0.08912219 0 0 Z " fill="#64060D" transform="translate(191,175)"/>
<path d="M0 0 C0 1.98 0 3.96 0 6 C-0.66 4.68 -1.32 3.36 -2 2 C-2.66 3.32 -3.32 4.64 -4 6 C-4.99 5.34 -5.98 4.68 -7 4 C-7 3.01 -7 2.02 -7 1 C-7.33 0.34 -7.66 -0.32 -8 -1 C-4.59745511 -2.2151946 -3.06748874 -1.86240388 0 0 Z " fill="#BD7C0A" transform="translate(220,248)"/>
<path d="M0 0 C0.66 0 1.32 0 2 0 C2.33 0.66 2.66 1.32 3 2 C5.01669827 3.13350534 5.01669827 3.13350534 7 4 C7 6.31 7 8.62 7 11 C6.01 11.33 5.02 11.66 4 12 C3.34 11.01 2.68 10.02 2 9 C2.66 9 3.32 9 4 9 C3.67 7.35 3.34 5.7 3 4 C2.34 4 1.68 4 1 4 C0.67 2.68 0.34 1.36 0 0 Z " fill="#B0A030" transform="translate(176,147)"/>
<path d="M0 0 C0.66 0 1.32 0 2 0 C2.33 0.99 2.66 1.98 3 3 C5.00016466 4.20882096 5.00016466 4.20882096 7 5 C3.91190305 6.76462683 2.76687864 7 -1 7 C-0.67 4.69 -0.34 2.38 0 0 Z " fill="#AD0F18" transform="translate(209,237)"/>
<path d="M0 0 C0.99 0 1.98 0 3 0 C3 1.32 3 2.64 3 4 C3.99 4 4.98 4 6 4 C5.67 5.65 5.34 7.3 5 9 C5.66 9 6.32 9 7 9 C7.33 8.34 7.66 7.68 8 7 C8.33 8.32 8.66 9.64 9 11 C8.01 11.495 8.01 11.495 7 12 C6.01 11.67 5.02 11.34 4 11 C2.47839986 7.3962102 2 4.94779314 2 1 C1.34 0.67 0.68 0.34 0 0 Z " fill="#985E73" transform="translate(221,209)"/>
<path d="M0 0 C0 1.98 0 3.96 0 6 C-0.99 5.67 -1.98 5.34 -3 5 C-3 6.98 -3 8.96 -3 11 C-3.66 10.67 -4.32 10.34 -5 10 C-5 7.03 -5 4.06 -5 1 C-3 0 -3 0 0 0 Z " fill="#930F0F" transform="translate(253,218)"/>
<path d="M0 0 C0.33 0.99 0.66 1.98 1 3 C1.66 3 2.32 3 3 3 C2.67 4.65 2.34 6.3 2 8 C1.01 8 0.02 8 -1 8 C-1 7.34 -1 6.68 -1 6 C-1.66 6 -2.32 6 -3 6 C-1.125 1.125 -1.125 1.125 0 0 Z " fill="#918524" transform="translate(200,225)"/>
<path d="M0 0 C2.97 0.33 5.94 0.66 9 1 C8.34 2.98 7.68 4.96 7 7 C6.34 7 5.68 7 5 7 C2 3.53846154 2 3.53846154 2 1 C1.34 0.67 0.68 0.34 0 0 Z " fill="#B45F18" transform="translate(139,205)"/>
<path d="M0 0 C0.99 0.33 1.98 0.66 3 1 C3.33 3.31 3.66 5.62 4 8 C3.01 8 2.02 8 1 8 C1 7.34 1 6.68 1 6 C-0.65 5.67 -2.3 5.34 -4 5 C-2.68 4.34 -1.36 3.68 0 3 C0 2.01 0 1.02 0 0 Z " fill="#5D7069" transform="translate(201,131)"/>
<path d="M0 0 C-0.33 2.97 -0.66 5.94 -1 9 C-1.66 9 -2.32 9 -3 9 C-3 8.01 -3 7.02 -3 6 C-3.66 5.67 -4.32 5.34 -5 5 C-5 4.01 -5 3.02 -5 2 C-2 0 -2 0 0 0 Z " fill="#8C7C00" transform="translate(190,196)"/>
<path d="M0 0 C1.32 0 2.64 0 4 0 C3.67 1.65 3.34 3.3 3 5 C1.02 5.66 -0.96 6.32 -3 7 C-2.01 4.69 -1.02 2.38 0 0 Z " fill="#C39805" transform="translate(225,236)"/>
<path d="M0 0 C2.0625 0.4375 2.0625 0.4375 4 1 C4 2.65 4 4.3 4 6 C2.35 6 0.7 6 -1 6 C-1.042721 4.33388095 -1.04063832 2.66617115 -1 1 C-0.67 0.67 -0.34 0.34 0 0 Z " fill="#0F39DF" transform="translate(179,213)"/>
<path d="M0 0 C1.32 0.66 2.64 1.32 4 2 C3.67 4.64 3.34 7.28 3 10 C0.5625 9.625 0.5625 9.625 -2 9 C-2.33 8.34 -2.66 7.68 -3 7 C-0.525 7.495 -0.525 7.495 2 8 C2 6.68 2 5.36 2 4 C1.01 3.67 0.02 3.34 -1 3 C-0.67 2.01 -0.34 1.02 0 0 Z " fill="#99240D" transform="translate(131,213)"/>
<path d="M0 0 C3.3 0 6.6 0 10 0 C9.34 1.32 8.68 2.64 8 4 C8.33 4.66 8.66 5.32 9 6 C7.35 6.33 5.7 6.66 4 7 C4.50603992 4.83125748 4.99983813 3.00032373 6 1 C4.02 1 2.04 1 0 1 C0 0.67 0 0.34 0 0 Z " fill="#9D0C14" transform="translate(142,205)"/>
<path d="M0 0 C3.73639216 1.24546405 4.18756513 2.63404953 6 6 C3.69 5.67 1.38 5.34 -1 5 C-1 2 -1 2 0 0 Z " fill="#BDBCBB" transform="translate(213,188)"/>
<path d="M0 0 C-0.33 1.65 -0.66 3.3 -1 5 C-2.65 4.67 -4.3 4.34 -6 4 C-6.33 3.01 -6.66 2.02 -7 1 C-4.50935112 0.31292445 -2.62113708 0 0 0 Z " fill="#9C0E13" transform="translate(208,160)"/>
<path d="M0 0 C0.66 0 1.32 0 2 0 C2 0.99 2 1.98 2 3 C2.66 3 3.32 3 4 3 C3.34 4.65 2.68 6.3 2 8 C1.01 7.67 0.02 7.34 -1 7 C-1.6875 4.9375 -1.6875 4.9375 -2 3 C-1.34 3 -0.68 3 0 3 C0 2.01 0 1.02 0 0 Z " fill="#A18F03" transform="translate(195,218)"/>
<path d="M0 0 C1.98 0 3.96 0 6 0 C7.0625 1.875 7.0625 1.875 8 4 C7.67 4.66 7.34 5.32 7 6 C5.68 6 4.36 6 3 6 C3 5.34 3 4.68 3 4 C2.0206121 2.97980427 1.02104551 1.97850195 0 1 C0 0.67 0 0.34 0 0 Z " fill="#8D6504" transform="translate(220,168)"/>
<path d="M0 0 C1.32 0.33 2.64 0.66 4 1 C4.79953138 4.28696233 5.09658936 5.71023192 4 9 C3.34 9 2.68 9 2 9 C0.50178941 5.62902617 0 3.79557881 0 0 Z " fill="#BBA757" transform="translate(156,151)"/>
<path d="M0 0 C1.65 0 3.3 0 5 0 C4.34 1.98 3.68 3.96 3 6 C1.35 5.67 -0.3 5.34 -2 5 C-2 4.01 -2 3.02 -2 2 C-1.34 2 -0.68 2 0 2 C0 1.34 0 0.68 0 0 Z " fill="#AA993E" transform="translate(219,147)"/>
<path d="M0 0 C1.80411967 2.75924185 2.0127245 3.88972103 1.625 7.25 C1.41875 8.1575 1.2125 9.065 1 10 C0.01 10 -0.98 10 -2 10 C-2 9.01 -2 8.02 -2 7 C-2.99 6.67 -3.98 6.34 -5 6 C-4.01 6 -3.02 6 -2 6 C-2 5.34 -2 4.68 -2 4 C-1.34 4 -0.68 4 0 4 C0 2.68 0 1.36 0 0 Z " fill="#BC7B0B" transform="translate(234,240)"/>
<path d="M0 0 C2.7558573 4.13378595 3.10756445 6.05203546 3 11 C2.01 11.495 2.01 11.495 1 12 C-1.125 11.0625 -1.125 11.0625 -3 10 C-1.68 10 -0.36 10 1 10 C0.67 6.7 0.34 3.4 0 0 Z " fill="#AE6787" transform="translate(230,195)"/>
<path d="M0 0 C3.3 0 6.6 0 10 0 C10 0.66 10 1.32 10 2 C6.7 2.33 3.4 2.66 0 3 C0 2.01 0 1.02 0 0 Z " fill="#A51218" transform="translate(197,176)"/>
<path d="M0 0 C2.31 0.33 4.62 0.66 7 1 C6.67 2.32 6.34 3.64 6 5 C4.02 4.34 2.04 3.68 0 3 C0 2.01 0 1.02 0 0 Z " fill="#852D0F" transform="translate(261,173)"/>
<path d="M0 0 C1.32 0.33 2.64 0.66 4 1 C4 1.66 4 2.32 4 3 C4.94875 2.95875 5.8975 2.9175 6.875 2.875 C10 3 10 3 12 5 C8.7 5 5.4 5 2 5 C0 1 0 1 0 0 Z " fill="#927202" transform="translate(173,171)"/>
<path d="M0 0 C0.125 2.375 0.125 2.375 0 5 C-0.66 5.66 -1.32 6.32 -2 7 C-2.99 6.67 -3.98 6.34 -5 6 C-4.01 5.34 -3.02 4.68 -2 4 C-3.32 2.68 -4.64 1.36 -6 0 C-3 -1 -3 -1 0 0 Z " fill="#AE9900" transform="translate(234,162)"/>
<path d="M0 0 C0.66 0 1.32 0 2 0 C1.125 6.75 1.125 6.75 0 9 C-0.66 9 -1.32 9 -2 9 C-2.6875 6.75 -2.6875 6.75 -3 4 C-1.6875 1.6875 -1.6875 1.6875 0 0 Z " fill="#BCA75A" transform="translate(242,151)"/>
<path d="M0 0 C2 2 2 2 2.125 4.625 C2.08375 5.40875 2.0425 6.1925 2 7 C1.01 7.495 1.01 7.495 0 8 C-1.5625 6.1875 -1.5625 6.1875 -3 4 C-2.67 3.01 -2.34 2.02 -2 1 C-1.34 0.67 -0.68 0.34 0 0 Z " fill="#911D12" transform="translate(130,238)"/>
<path d="M0 0 C0.33 0 0.66 0 1 0 C1 2.97 1 5.94 1 9 C0.01 9 -0.98 9 -2 9 C-2.125 5.625 -2.125 5.625 -2 2 C-1.34 1.34 -0.68 0.68 0 0 Z " fill="#AD1212" transform="translate(190,219)"/>
<path d="M0 0 C1.32 0 2.64 0 4 0 C4 1.98 4 3.96 4 6 C2.68 6 1.36 6 0 6 C0 4.02 0 2.04 0 0 Z " fill="#2847B8" transform="translate(183,203)"/>
<path d="M0 0 C1.98 0 3.96 0 6 0 C6 1.32 6 2.64 6 4 C4.02 4 2.04 4 0 4 C0 2.68 0 1.36 0 0 Z " fill="#890814" transform="translate(191,175)"/>
<path d="M0 0 C-1.24546405 3.73639216 -2.63404953 4.18756513 -6 6 C-6.33 5.67 -6.66 5.34 -7 5 C-7.33 5.66 -7.66 6.32 -8 7 C-8.66 7 -9.32 7 -10 7 C-9.67 5.68 -9.34 4.36 -9 3 C-7.35 3 -5.7 3 -4 3 C-4 2.34 -4 1.68 -4 1 C-2 0 -2 0 0 0 Z " fill="#AB952F" transform="translate(167,143)"/>
<path d="M0 0 C-0.33 1.65 -0.66 3.3 -1 5 C-1.33 4.34 -1.66 3.68 -2 3 C-3.32 3.33 -4.64 3.66 -6 4 C-6 4.66 -6 5.32 -6 6 C-6.99 6 -7.98 6 -9 6 C-9 5.34 -9 4.68 -9 4 C-8.34 4 -7.68 4 -7 4 C-7 3.34 -7 2.68 -7 2 C-2.25 0 -2.25 0 0 0 Z " fill="#BBA35C" transform="translate(169,140)"/>
<path d="M0 0 C1.5625 1.1875 1.5625 1.1875 3 3 C2.6875 5.6875 2.6875 5.6875 2 8 C1.01 8 0.02 8 -1 8 C-1.33 6.35 -1.66 4.7 -2 3 C-1.34 3 -0.68 3 0 3 C0 2.01 0 1.02 0 0 Z " fill="#A08F0C" transform="translate(204,218)"/>
<path d="M0 0 C-0.99 0 -1.98 0 -3 0 C-3 1.98 -3 3.96 -3 6 C-4.32 5.67 -5.64 5.34 -7 5 C-6.625 2.5625 -6.625 2.5625 -6 0 C-3.50907189 -1.24546405 -2.58919267 -0.7767578 0 0 Z " fill="#B8760B" transform="translate(156,206)"/>
<path d="M0 0 C0 1.32 0 2.64 0 4 C-1.98 4 -3.96 4 -6 4 C-6 3.01 -6 2.02 -6 1 C-4 0 -4 0 0 0 Z " fill="#8A2A0D" transform="translate(259,173)"/>
<path d="M0 0 C1.98 0 3.96 0 6 0 C6.33 1.32 6.66 2.64 7 4 C5.68 4.33 4.36 4.66 3 5 C3 3.68 3 2.36 3 1 C2.34 1 1.68 1 1 1 C1 1.66 1 2.32 1 3 C0.34 2.67 -0.32 2.34 -1 2 C-0.67 1.34 -0.34 0.68 0 0 Z " fill="#952611" transform="translate(142,172)"/>
<path d="M0 0 C1.32 1.32 2.64 2.64 4 4 C3.34 4 2.68 4 2 4 C1.67 4.99 1.34 5.98 1 7 C-0.32 6.34 -1.64 5.68 -3 5 C-3 3 -3 3 -1.5 1.375 C-1.005 0.92125 -0.51 0.4675 0 0 Z " fill="#8C4E09" transform="translate(140,168)"/>
<path d="M0 0 C0.33 0.99 0.66 1.98 1 3 C1.66 3.33 2.32 3.66 3 4 C-0.81489674 5.46726798 -3.29011622 4.43336419 -7 3 C-7 2.34 -7 1.68 -7 1 C-5.5459375 1.0309375 -5.5459375 1.0309375 -4.0625 1.0625 C-1.12534105 1.35618499 -1.12534105 1.35618499 0 0 Z " fill="#8E1911" transform="translate(171,163)"/>
<path d="M0 0 C2.97 0.495 2.97 0.495 6 1 C5.34 2.32 4.68 3.64 4 5 C2.35 4.67 0.7 4.34 -1 4 C-0.67 2.68 -0.34 1.36 0 0 Z " fill="#9E0F16" transform="translate(211,161)"/>
<path d="M0 0 C0.66 0 1.32 0 2 0 C1.67 1.98 1.34 3.96 1 6 C1.99 5.67 2.98 5.34 4 5 C3.67 6.32 3.34 7.64 3 9 C2.67 8.67 2.34 8.34 2 8 C-0.32817964 7.63239269 -2.6618385 7.29758419 -5 7 C-5 6.67 -5 6.34 -5 6 C-3.35 6 -1.7 6 0 6 C-0.2784375 4.7934375 -0.2784375 4.7934375 -0.5625 3.5625 C-0.706875 2.716875 -0.85125 1.87125 -1 1 C-0.67 0.67 -0.34 0.34 0 0 Z " fill="#9A9385" transform="translate(196,263)"/>
<path d="M0 0 C1.98 0 3.96 0 6 0 C6 0.99 6 1.98 6 3 C4.35 3.66 2.7 4.32 1 5 C0.67 3.35 0.34 1.7 0 0 Z " fill="#847301" transform="translate(183,190)"/>
<path d="M0 0 C0.66 0 1.32 0 2 0 C2 1.32 2 2.64 2 4 C-0.64 4.33 -3.28 4.66 -6 5 C-5.67 4.01 -5.34 3.02 -5 2 C-5.66 1.67 -6.32 1.34 -7 1 C-5.68 1 -4.36 1 -3 1 C-3 1.66 -3 2.32 -3 3 C-2.01 3 -1.02 3 0 3 C0 2.01 0 1.02 0 0 Z " fill="#C6AF00" transform="translate(182,170)"/>
<path d="M0 0 C-0.1875 1.875 -0.1875 1.875 -1 4 C-3.5625 5.25 -3.5625 5.25 -6 6 C-6.33 5.01 -6.66 4.02 -7 3 C-2.25 0 -2.25 0 0 0 Z " fill="#A33539" transform="translate(192,160)"/>
<path d="M0 0 C-0.66 1.32 -1.32 2.64 -2 4 C-2.33 3.01 -2.66 2.02 -3 1 C-5.31 1.33 -7.62 1.66 -10 2 C-10 1.34 -10 0.68 -10 0 C-6.30581799 -1.231394 -3.7943739 -0.64432764 0 0 Z " fill="#BCA65D" transform="translate(215,136)"/>
<path d="M0 0 C1.8871875 0.061875 1.8871875 0.061875 3.8125 0.125 C3.8125 0.455 3.8125 0.785 3.8125 1.125 C1.8325 1.455 -0.1475 1.785 -2.1875 2.125 C-2.1875 3.115 -2.1875 4.105 -2.1875 5.125 C-3.1775 5.455 -4.1675 5.785 -5.1875 6.125 C-5.1875 5.135 -5.1875 4.145 -5.1875 3.125 C-5.8475 2.795 -6.5075 2.465 -7.1875 2.125 C-4.09861478 0.06574319 -3.47814073 -0.1140374 0 0 Z " fill="#7F1317" transform="translate(200.1875,209.875)"/>
<path d="M0 0 C1.32 0.66 2.64 1.32 4 2 C4 2.66 4 3.32 4 4 C3.34 4 2.68 4 2 4 C2 4.99 2 5.98 2 7 C1.34 7 0.68 7 0 7 C-1.125 2.25 -1.125 2.25 0 0 Z " fill="#BB790B" transform="translate(132,207)"/>
<path d="M0 0 C-0.639375 0.4125 -1.27875 0.825 -1.9375 1.25 C-4.20990931 3.17810487 -4.60196439 4.11424181 -5 7 C-5.66 6.67 -6.32 6.34 -7 6 C-7 4.35 -7 2.7 -7 1 C-3.375 -1.125 -3.375 -1.125 0 0 Z " fill="#AC577E" transform="translate(224,206)"/>
<path d="M0 0 C2.475 0.99 2.475 0.99 5 2 C5 2.66 5 3.32 5 4 C5.66 4 6.32 4 7 4 C7 4.66 7 5.32 7 6 C4.625 5.8125 4.625 5.8125 2 5 C0.6875 2.4375 0.6875 2.4375 0 0 Z " fill="#7C723B" transform="translate(222,183)"/>
<path d="M0 0 C2.64 0 5.28 0 8 0 C7.67 0.99 7.34 1.98 7 3 C5.02 3 3.04 3 1 3 C0.67 2.01 0.34 1.02 0 0 Z " fill="#BDAA1B" transform="translate(203,169)"/>
<path d="M0 0 C2.31 0 4.62 0 7 0 C7 1.98 7 3.96 7 6 C6.01 6 5.02 6 4 6 C4.33 4.35 4.66 2.7 5 1 C3.68 1.33 2.36 1.66 1 2 C0.67 1.34 0.34 0.68 0 0 Z " fill="#870C12" transform="translate(172,189)"/>
<path d="M0 0 C1.98 0 3.96 0 6 0 C5.67 1.32 5.34 2.64 5 4 C3.35 4 1.7 4 0 4 C0 2.68 0 1.36 0 0 Z " fill="#A01515" transform="translate(193,161)"/>
<path d="M0 0 C2.475 0.99 2.475 0.99 5 2 C5 3.65 5 5.3 5 7 C4.34 7 3.68 7 3 7 C2.67 6.01 2.34 5.02 2 4 C1.34 4 0.68 4 0 4 C0 2.68 0 1.36 0 0 Z " fill="#B69F2A" transform="translate(199,139)"/>
<path d="M0 0 C0.66 0 1.32 0 2 0 C2 0.66 2 1.32 2 2 C2.66 2 3.32 2 4 2 C4 2.99 4 3.98 4 5 C2.02 5 0.04 5 -2 5 C-2 4.01 -2 3.02 -2 2 C-1.34 2 -0.68 2 0 2 C0 1.34 0 0.68 0 0 Z " fill="#B89D00" transform="translate(199,124)"/>
<path d="M0 0 C-3.00617269 3.00617269 -5.82381598 2.59585316 -10 3 C-10 2.34 -10 1.68 -10 1 C-6.52674819 -0.1577506 -3.63932552 -0.06866652 0 0 Z " fill="#124794" transform="translate(257,271)"/>
<path d="M0 0 C0 0.66 0 1.32 0 2 C1.32 2.33 2.64 2.66 4 3 C-2.625 4.25 -2.625 4.25 -6 2 C-3 0 -3 0 0 0 Z " fill="#B02C16" transform="translate(225,226)"/>
<path d="M0 0 C2.31 0 4.62 0 7 0 C5 2 5 2 3 3 C3 3.66 3 4.32 3 5 C2.01 5 1.02 5 0 5 C0 3.35 0 1.7 0 0 Z " fill="#857700" transform="translate(169,214)"/>
<path d="M0 0 C1.67542976 0.28604898 3.34385343 0.61781233 5 1 C4.01 1.33 3.02 1.66 2 2 C1.67 2.99 1.34 3.98 1 5 C-1.0625 5.6875 -1.0625 5.6875 -3 6 C-2.67 4.68 -2.34 3.36 -2 2 C-2 2.66 -2 3.32 -2 4 C-1.34 4 -0.68 4 0 4 C-0.33 3.01 -0.66 2.02 -1 1 C-0.67 0.67 -0.34 0.34 0 0 Z " fill="#AA9700" transform="translate(186,212)"/>
<path d="M0 0 C0.99 0 1.98 0 3 0 C3.33 1.98 3.66 3.96 4 6 C2.68 6 1.36 6 0 6 C0 4.02 0 2.04 0 0 Z " fill="#BA6A0E" transform="translate(251,206)"/>
<path d="M0 0 C-0.33 1.32 -0.66 2.64 -1 4 C-2.65 3.67 -4.3 3.34 -6 3 C-6 2.34 -6 1.68 -6 1 C-3 0 -3 0 0 0 Z " fill="#9F0914" transform="translate(181,163)"/>
<path d="M0 0 C-1.1875 1.5 -1.1875 1.5 -3 3 C-5.6875 3.1875 -5.6875 3.1875 -8 3 C-8 2.34 -8 1.68 -8 1 C-5.29120665 -0.35439668 -2.99066732 -0.06501451 0 0 Z " fill="#1E6F59" transform="translate(210,270)"/>
<path d="M0 0 C2.1385485 2.1385485 2.42655063 3.13275314 3 6 C1.35 6 -0.3 6 -2 6 C-1.49396008 3.83125748 -1.00016187 2.00032373 0 0 Z " fill="#B9BAB9" transform="translate(200,256)"/>
<path d="M0 0 C2.4375 0.75 2.4375 0.75 5 2 C5.8125 4.125 5.8125 4.125 6 6 C4.68 6 3.36 6 2 6 C1.34 4.02 0.68 2.04 0 0 Z " fill="#C7AB01" transform="translate(228,254)"/>
<path d="M0 0 C0.66 0 1.32 0 2 0 C2 1.32 2 2.64 2 4 C2.99 4.33 3.98 4.66 5 5 C4.34 5 3.68 5 3 5 C3 5.66 3 6.32 3 7 C2.01 6.67 1.02 6.34 0 6 C0 4.02 0 2.04 0 0 Z " fill="#B67414" transform="translate(137,207)"/>
<path d="M0 0 C1.65 0 3.3 0 5 0 C4.67 1.65 4.34 3.3 4 5 C2.68 5 1.36 5 0 5 C0 3.35 0 1.7 0 0 Z " fill="#C19206" transform="translate(261,208)"/>
<path d="M0 0 C1.32 0.33 2.64 0.66 4 1 C3.01 1.33 2.02 1.66 1 2 C1 3.65 1 5.3 1 7 C0.01 6.67 -0.98 6.34 -2 6 C-1.34 4.02 -0.68 2.04 0 0 Z " fill="#EA6EA7" transform="translate(220,207)"/>
<path d="M0 0 C1.32 0 2.64 0 4 0 C4.33 1.32 4.66 2.64 5 4 C3.02 4 1.04 4 -1 4 C-0.67 2.68 -0.34 1.36 0 0 Z " fill="#7E270D" transform="translate(198,157)"/>
<path d="M0 0 C0.99 0 1.98 0 3 0 C3 0.66 3 1.32 3 2 C3.66 2.33 4.32 2.66 5 3 C4.67 3.66 4.34 4.32 4 5 C2.68 5 1.36 5 0 5 C0 3.35 0 1.7 0 0 Z " fill="#C0AB00" transform="translate(198,152)"/>
<path d="M0 0 C2.97 0.33 5.94 0.66 9 1 C8.67 1.66 8.34 2.32 8 3 C7.34 3 6.68 3 6 3 C5.34 3.66 4.68 4.32 4 5 C2 3.625 2 3.625 0 2 C0 1.34 0 0.68 0 0 Z " fill="#C6B074" transform="translate(218,138)"/>
<path d="M0 0 C1.98 0.495 1.98 0.495 4 1 C3.67 1.99 3.34 2.98 3 4 C2.34 4 1.68 4 1 4 C1 4.66 1 5.32 1 6 C0.34 6 -0.32 6 -1 6 C-0.67 4.02 -0.34 2.04 0 0 Z " fill="#D56B9C" transform="translate(227,212)"/>
<path d="M0 0 C1.65 0 3.3 0 5 0 C5 0.99 5 1.98 5 3 C3.02 3 1.04 3 -1 3 C-0.67 2.01 -0.34 1.02 0 0 Z " fill="#AB1010" transform="translate(198,211)"/>
<path d="M0 0 C2.31 0.66 4.62 1.32 7 2 C7 2.66 7 3.32 7 4 C5.35 3.67 3.7 3.34 2 3 C1.67 3.66 1.34 4.32 1 5 C0.67 3.35 0.34 1.7 0 0 Z " fill="#BCA665" transform="translate(231,140)"/>
<path d="M0 0 C1.98 0 3.96 0 6 0 C6 0.66 6 1.32 6 2 C3.36 2.66 0.72 3.32 -2 4 C-1.34 2.68 -0.68 1.36 0 0 Z " fill="#AB8F02" transform="translate(206,137)"/>
</svg>
